<svg xmlns="http://www.w3.org/2000/svg" width="247.625" height="193.109" viewBox="0 0 247.625 193.109"><g id="Layer_2" data-name="Layer 2"><g id="logos"><path d="M.191,192.692c.278.009.3.207.311.417A.627.627,0,0,1,.191,192.692Z" fill="#6b0f02"/><path d="M0,192.432a.294.294,0,0,1,.238.291A.374.374,0,0,1,0,192.432Z" fill="#6b0f02"/><path d="M206.348,107.555a1.43,1.43,0,0,1-.22-.046,27.46,27.46,0,0,1-9.86-6.339,25.2,25.2,0,0,1-4.012-5.383,1.517,1.517,0,0,0-.266-.423c-.111-.232-.221-.464-.332-.7-.158-.326-.325-.649-.475-.979-.195-.425-.378-.856-.566-1.284a1.135,1.135,0,0,0-.045-.176c-.161-.379-.317-.758-.44-1.152-.213-.683-.449-1.359-.647-2.047-.189-.656-.371-1.317-.5-1.987-.16-.818-.32-1.636-.4-2.469a14.293,14.293,0,0,1-.169-1.812.39.39,0,0,0-.01-.137,2.754,2.754,0,0,1-.078-.952c0-.825,0-1.65,0-2.475a1.155,1.155,0,0,1,.019-.364,2.285,2.285,0,0,0,.071-.725,1.515,1.515,0,0,1,.047-.407,2.159,2.159,0,0,0,.044-.361c.04-.347.054-.7.127-1.039.2-.9.351-1.816.6-2.711a21.882,21.882,0,0,1,1.241-3.383c.181-.388.375-.769.575-1.147a13.591,13.591,0,0,1,1.165-1.908c.114-.15.274-.3.242-.526a.285.285,0,0,0,.2-.1c.291-.39.615-.752.93-1.123a7.289,7.289,0,0,1,1.063-1.059.818.818,0,0,0,.388-.489c.178.035.278-.1.395-.188a12.954,12.954,0,0,1,4.4-2.209,20.734,20.734,0,0,1,5.117-.712c1.759-.056,3.515.045,5.271.114.29.011.578.047.867.071a3.257,3.257,0,0,0-.1,1,.935.935,0,0,0,.123,1.278,2.07,2.07,0,0,0,1.178.551c.266.06.541.077.811.119a9.758,9.758,0,0,0,1.721.164,14.447,14.447,0,0,0,1.915-.072,7.489,7.489,0,0,0,2.343-.718.994.994,0,0,1,.43-.144c.241.038.44-.1.661-.153,1.3-.3,2.578-.718,3.889-.994a16.968,16.968,0,0,1,3.193-.492.487.487,0,0,0,.18-.021,1.4,1.4,0,0,1,.588-.066,14.4,14.4,0,0,1,1.551.071c.466.06.933.108,1.4.194a13.544,13.544,0,0,1,3,.954,15.892,15.892,0,0,1,1.748.905,14.169,14.169,0,0,1,2.326,1.689,18.117,18.117,0,0,1,2.5,2.667,15.145,15.145,0,0,1,1.224,1.874c.367.7.73,1.41,1.043,2.142a21.6,21.6,0,0,1,1.019,3.076,13.384,13.384,0,0,1,.3,1.427,14.751,14.751,0,0,1,.263,2.031.356.356,0,0,0,.016.135,1.8,1.8,0,0,1,.072.679,6.21,6.21,0,0,0,.075,1.231,1.687,1.687,0,0,1-.008.728,2.659,2.659,0,0,0-.062.772,9.1,9.1,0,0,1-.116,1.731c-.065.54-.143,1.082-.239,1.621a21.161,21.161,0,0,1-1.508,4.969,20.692,20.692,0,0,1-1.026,1.993,22.484,22.484,0,0,1-1.441,2.17,21.8,21.8,0,0,1-2.209,2.616,3.525,3.525,0,0,0-.513.583,1.25,1.25,0,0,1-.353.357,5.991,5.991,0,0,0-.812.738c-.155.147-.3.311-.46.449q-.733.617-1.481,1.215c-.465.37-.925.747-1.414,1.082-.716.491-1.44.972-2.176,1.435-.868.544-1.767,1.027-2.675,1.5-.595.307-1.221.556-1.831.834-.764.348-1.552.634-2.342.916-.645.231-1.306.412-1.966.6a33.054,33.054,0,0,1-3.374.782c-.433.076-.867.152-1.3.22-.359.056-.72.117-1.082.141a9,9,0,0,1-1.41.1.3.3,0,0,0-.135.023,1.216,1.216,0,0,1-.5.061h-3.44a.924.924,0,0,1-.274-.01,10.087,10.087,0,0,0-1.5-.153c-.536-.092-1.076-.185-1.617-.254A5.132,5.132,0,0,0,206.348,107.555Zm25.835-26.514a10.064,10.064,0,0,0-.088-1.916.393.393,0,0,1,0-.137,7.1,7.1,0,0,0-.114-1.318c-.038-.466-.164-.925-.249-1.388a19.386,19.386,0,0,0-.608-2.432,18.167,18.167,0,0,0-1.31-2.971,9.4,9.4,0,0,0-.525-.857c-.394-.582-.9-1.071-1.336-1.62a.423.423,0,0,0-.141-.115,1.659,1.659,0,0,1-.382-.326,3.8,3.8,0,0,0-.3-.283,10.177,10.177,0,0,0-2.442-1.421,10.334,10.334,0,0,0-3.647-.742c-.5,0-1.009,0-1.514,0a1.185,1.185,0,0,0-.364.02,2.091,2.091,0,0,1-.68.071,1.013,1.013,0,0,0-.318.019,2.227,2.227,0,0,1-.725.073.887.887,0,0,0-.274.016,2.509,2.509,0,0,1-.862.075c-.474,0-.948,0-1.422,0a5.162,5.162,0,0,1-1.136-.092,6.038,6.038,0,0,1-2.1-.869,5.861,5.861,0,0,1-1.368-1.4,3.18,3.18,0,0,0-2.551-1.3,7.381,7.381,0,0,0-2.007.08,9.682,9.682,0,0,0-1.584.174,14.208,14.208,0,0,0-2.52.621,11.5,11.5,0,0,0-1.607.66c-.4.2-.784.41-1.169.628a14.567,14.567,0,0,0-1.656,1.136,14.052,14.052,0,0,0-1.6,1.506c-.241.252-.446.538-.666.81-.413.51-.749,1.075-1.139,1.6A16,16,0,0,0,192.6,71.3a17.665,17.665,0,0,0-.883,2.059,22.06,22.06,0,0,0-.684,2.178c-.107.395-.165.8-.252,1.2a14.085,14.085,0,0,0-.345,2.294.533.533,0,0,1-.023.18,1.6,1.6,0,0,0-.067.634,3.179,3.179,0,0,1-.022.685,3.658,3.658,0,0,0-.069.864c0,.291.012.582,0,.872-.035.627.149,1.242.1,1.87a.4.4,0,0,0,.037.178,1.124,1.124,0,0,1,.048.407,2.432,2.432,0,0,0,.015.32c.05.315.126.626.161.942a11.63,11.63,0,0,0,.247,1.3,18.8,18.8,0,0,0,.863,2.791,18.764,18.764,0,0,0,2.8,4.749c.32.366.6.766.952,1.107.491.48.965.975,1.492,1.42.559.472,1.129.926,1.725,1.35a23.722,23.722,0,0,0,3.319,1.931,22.2,22.2,0,0,0,2.282.941,23.833,23.833,0,0,0,3.254.9,11.014,11.014,0,0,0,1.12.2,5.055,5.055,0,0,0,1,.11c.5.152,1.034.03,1.537.172a21.3,21.3,0,0,0,2.743-.078c.371-.064.756-.032,1.136-.086.314-.044.64-.071.946-.136.742-.157,1.491-.282,2.222-.5a20.936,20.936,0,0,0,2.624-.938,18.8,18.8,0,0,0,2.69-1.468,16.783,16.783,0,0,0,2.721-2.221c.384-.393.769-.782,1.125-1.2a15.344,15.344,0,0,0,1.258-1.68,19.33,19.33,0,0,0,1.257-2.28,20.942,20.942,0,0,0,1.229-3.343,26.991,26.991,0,0,0,.774-3.886,8.02,8.02,0,0,1,.091-.813,5.271,5.271,0,0,0,.078-1.047.681.681,0,0,1,.018-.227,1.935,1.935,0,0,0,.072-.725C232.185,81.944,232.183,81.561,232.183,81.041Z" fill="#9a1a02"/><path d="M146.082,90.577a1.991,1.991,0,0,1-.151-.168,27.883,27.883,0,0,1-4.367-9.375,23.717,23.717,0,0,1-.7-4.846A27.872,27.872,0,0,1,141,72.021a30.9,30.9,0,0,1,1.909-7.765,29.816,29.816,0,0,1,5.265-8.862,22.989,22.989,0,0,1,6.589-5.341,18.33,18.33,0,0,1,4.927-1.812,13.072,13.072,0,0,1,7.431.619,21.566,21.566,0,0,1,3.787,1.938c1.4.88,2.729,1.857,4.048,2.849a9.249,9.249,0,0,1,1.08.841,1.347,1.347,0,0,1-.327.374.462.462,0,0,0-.145.367,3.559,3.559,0,0,0-.34.13.913.913,0,0,0-.46.874,1.8,1.8,0,0,0,.5,1.051c.454.429.885.879,1.364,1.284a12.035,12.035,0,0,0,2.582,1.705,6.97,6.97,0,0,0,2.589.665c.016.1.079.148.177.182.6.207,1.207.424,1.811.633.4.14.816.255,1.212.411.85.334,1.7.657,2.544,1.021a16.357,16.357,0,0,1,2.1,1.107,11.285,11.285,0,0,1,1.34.947.407.407,0,0,1-.107.246c-.266.331-.55.653-.787,1a17.771,17.771,0,0,0-1.864,3.348c-.23.58-.468,1.157-.684,1.743a20.969,20.969,0,0,0-.677,2.321c-.155.633-.3,1.269-.391,1.917-.06.42-.14.837-.192,1.259-.056.451-.1.9-.175,1.351a11.248,11.248,0,0,0-.085,1.32.371.371,0,0,1-.027.133,1.319,1.319,0,0,0-.058.543c0,.963,0,1.925,0,2.888a3.728,3.728,0,0,0,.082,1.181.621.621,0,0,1,.007.228,9.1,9.1,0,0,0,.116,1.317,12.787,12.787,0,0,0,.256,1.569c.123.64.229,1.287.4,1.914a26.466,26.466,0,0,0,.868,2.835c.267.664.52,1.333.835,1.977a3.514,3.514,0,0,1-.825.78,18.707,18.707,0,0,1-2.694,1.8,25.3,25.3,0,0,1-3.8,1.689,32.308,32.308,0,0,1-4.454,1.157c-.418.076-.836.142-1.258.2a9.463,9.463,0,0,1-1.353.162.521.521,0,0,0-.182.014,2.363,2.363,0,0,1-.815.077,1.009,1.009,0,0,0-.318.023,1.91,1.91,0,0,1-.679.067c-.978,0-1.956.005-2.934,0a3.957,3.957,0,0,1-1.227-.082.463.463,0,0,0-.182-.006,6.443,6.443,0,0,1-1.408-.115c-.57-.063-1.142-.142-1.71-.239-.884-.151-1.759-.334-2.63-.54-.665-.158-1.319-.365-1.977-.552-.749-.212-1.47-.5-2.2-.762-.629-.229-1.249-.486-1.863-.754-.573-.249-1.14-.515-1.7-.8-.529-.27-1.036-.584-1.562-.86-.567-.3-1.1-.652-1.639-1-.486-.311-.954-.652-1.418-1a21.457,21.457,0,0,1-2.456-2.039c-.2-.2-.439-.376-.661-.561a.3.3,0,0,0-.218-.047.061.061,0,0,1-.055-.08c0-.089-.014-.174-.133-.177l.02.013A.124.124,0,0,0,146.082,90.577ZM164.82,93.6a19.016,19.016,0,0,0,1.964-.075c.475-.083.962-.127,1.441-.207a14.033,14.033,0,0,0,2.292-.6c.487-.169.974-.348,1.451-.555a17.426,17.426,0,0,0,2.188-1.145,16.054,16.054,0,0,0,1.585-1.082c.537-.425,1.1-.822,1.6-1.289.532-.5,1.06-1,1.565-1.533.569-.6,1.134-1.192,1.649-1.837.493-.619.984-1.239,1.432-1.893a25.46,25.46,0,0,0,2.117-3.635c.059-.125.121-.247.184-.37a13.287,13.287,0,0,0,.7-1.689,15.628,15.628,0,0,0,.728-2.545,8.542,8.542,0,0,0,.229-1.623.851.851,0,0,1,.037-.27,1.339,1.339,0,0,0,.051-.361,12.645,12.645,0,0,0-.185-2.592,9.757,9.757,0,0,0-2.452-4.976,10.427,10.427,0,0,0-1.863-1.612,33.828,33.828,0,0,0-3-1.755,20.506,20.506,0,0,1-1.839-1.112,7.119,7.119,0,0,1-1.946-1.975,5.191,5.191,0,0,1-.646-1.747c-.1-.478-.073-.968-.169-1.448a3.2,3.2,0,0,0-.232-.783,4.176,4.176,0,0,0-1.378-1.5,11.309,11.309,0,0,0-1.352-.854c-.63-.343-1.272-.67-1.929-.957a14.491,14.491,0,0,0-2.077-.7,10.463,10.463,0,0,0-2.419-.419.675.675,0,0,1-.225-.034,1.241,1.241,0,0,0-.5-.053,10.761,10.761,0,0,0-1.872.078c-.278.058-.571.042-.859.088a16.535,16.535,0,0,0-2.305.546c-.5.155-.96.391-1.453.55a11.335,11.335,0,0,0-1.437.593,14.674,14.674,0,0,0-1.456.771c-.556.347-1.107.7-1.63,1.095-.34.257-.678.514-1,.8-.471.41-.961.8-1.4,1.242-.376.378-.738.77-1.095,1.167-.285.318-.56.645-.835.97-.4.476-.772.981-1.126,1.5a27.93,27.93,0,0,0-1.913,3.17c-.173.34-.315.7-.48,1.039a18.306,18.306,0,0,0-1.264,3.807,12.492,12.492,0,0,0-.333,2.251.683.683,0,0,1-.035.225,1.062,1.062,0,0,0-.052.406,24.965,24.965,0,0,0,.073,2.607c.072.493.121.993.189,1.489a17.765,17.765,0,0,0,.661,2.84,22.358,22.358,0,0,0,1.7,3.994c.261.482.548.952.842,1.415A22.877,22.877,0,0,0,148.5,85.4c.52.62,1.048,1.229,1.627,1.794a9.979,9.979,0,0,0,.721.7c.465.368.912.759,1.374,1.131a20.337,20.337,0,0,0,2.838,1.915,21.172,21.172,0,0,0,2.512,1.221,20.414,20.414,0,0,0,2.513.841,19.124,19.124,0,0,0,2.143.431,12.841,12.841,0,0,0,2.043.163C164.453,93.6,164.636,93.6,164.82,93.6Z" fill="#901a03"/><path d="M206.348,107.555a5.132,5.132,0,0,1,.947.126c.541.069,1.081.162,1.617.254a10.087,10.087,0,0,1,1.5.153.924.924,0,0,0,.274.01h3.44a1.216,1.216,0,0,0,.5-.061.3.3,0,0,1,.135-.023,9,9,0,0,0,1.41-.1c.362-.024.723-.085,1.082-.141.435-.068.869-.144,1.3-.22a33.054,33.054,0,0,0,3.374-.782c.66-.188,1.321-.369,1.966-.6.79-.282,1.578-.568,2.342-.916.61-.278,1.236-.527,1.831-.834.908-.469,1.807-.952,2.675-1.5.736-.463,1.46-.944,2.176-1.435.489-.335.949-.712,1.414-1.082q.749-.6,1.481-1.215c.164-.138.305-.3.46-.449a5.991,5.991,0,0,1,.812-.738,1.25,1.25,0,0,0,.353-.357,3.525,3.525,0,0,1,.513-.583,21.8,21.8,0,0,0,2.209-2.616,22.484,22.484,0,0,0,1.441-2.17,20.692,20.692,0,0,0,1.026-1.993,21.161,21.161,0,0,0,1.508-4.969c.1-.539.174-1.081.239-1.621a9.1,9.1,0,0,0,.116-1.731,2.659,2.659,0,0,1,.062-.772,1.687,1.687,0,0,0,.008-.728,6.21,6.21,0,0,1-.075-1.231,1.8,1.8,0,0,0-.072-.679.356.356,0,0,1-.016-.135,14.751,14.751,0,0,0-.263-2.031,13.384,13.384,0,0,0-.3-1.427,21.6,21.6,0,0,0-1.019-3.076c-.313-.732-.676-1.438-1.043-2.142a15.145,15.145,0,0,0-1.224-1.874,18.117,18.117,0,0,0-2.5-2.667,14.169,14.169,0,0,0-2.326-1.689,15.892,15.892,0,0,0-1.748-.905,13.544,13.544,0,0,0-3-.954c-.464-.086-.931-.134-1.4-.194a14.4,14.4,0,0,0-1.551-.071,1.4,1.4,0,0,0-.588.066.487.487,0,0,1-.18.021,16.968,16.968,0,0,0-3.193.492c-1.311.276-2.584.7-3.889.994-.221.05-.42.191-.661.153.031-.186.179-.264.313-.368a2.034,2.034,0,0,0,.729-.856.391.391,0,0,0,.05-.215.7.7,0,0,0-.28-.5,1.91,1.91,0,0,0-.627-.251c-.313-.061-.634-.063-.944-.116a5.752,5.752,0,0,0-1.087-.056.359.359,0,0,1-.171-.26c2.017-.355,4-.849,5.986-1.355,1.169-.3,2.336-.6,3.523-.828A18.516,18.516,0,0,1,231.791,58a11.347,11.347,0,0,1,3.168.691,17.535,17.535,0,0,1,8.523,6.747,22.984,22.984,0,0,1,3.193,7.214,29.544,29.544,0,0,1,.854,5.2,32.3,32.3,0,0,1,.057,4.08,31.837,31.837,0,0,1-2.842,11.919,24.606,24.606,0,0,1-6.513,8.479,29.76,29.76,0,0,1-10.386,5.681,33.844,33.844,0,0,1-11.575,1.543,32.309,32.309,0,0,1-9.508-1.811A1.041,1.041,0,0,1,206.348,107.555Z" fill="#720f02"/><path d="M146.351,90.945a.3.3,0,0,1,.218.047c.222.185.458.357.661.561a21.457,21.457,0,0,0,2.456,2.039c.464.346.932.687,1.418,1,.539.345,1.072.7,1.639,1,.526.276,1.033.59,1.562.86.556.284,1.123.55,1.7.8.614.268,1.234.525,1.863.754.729.265,1.45.55,2.2.762.658.187,1.312.394,1.977.552.871.206,1.746.389,2.63.54.568.1,1.14.176,1.71.239a6.443,6.443,0,0,0,1.408.115.463.463,0,0,1,.182.006,3.957,3.957,0,0,0,1.227.082c.978.006,1.956,0,2.934,0a1.91,1.91,0,0,0,.679-.067,1.009,1.009,0,0,1,.318-.023,2.363,2.363,0,0,0,.815-.077.521.521,0,0,1,.182-.014,9.463,9.463,0,0,0,1.353-.162c.422-.056.84-.122,1.258-.2A32.308,32.308,0,0,0,181.19,98.6a25.3,25.3,0,0,0,3.8-1.689,18.707,18.707,0,0,0,2.694-1.8,3.514,3.514,0,0,0,.825-.78h.091a.892.892,0,0,0,.121.521c.22.4.429.8.652,1.194.163.289.344.567.51.855a.333.333,0,0,0,.288.188,1.2,1.2,0,0,1-.115.139,28.3,28.3,0,0,1-6.991,4.665,24.7,24.7,0,0,1-5.847,1.817,27.5,27.5,0,0,1-6.391.417,30.6,30.6,0,0,1-7.955-1.465A33.774,33.774,0,0,1,149.826,94.9a30.881,30.881,0,0,1-3.272-3.652C146.481,91.151,146.418,91.046,146.351,90.945Z" fill="#6b0f02"/><path d="M178.669,56.227a3.237,3.237,0,0,0,.731-.468,20.648,20.648,0,0,0,3.282-3.124,33.662,33.662,0,0,0,3.9-5.6,35.663,35.663,0,0,0,2.026-4.412,56.916,56.916,0,0,0,2-6.284c.643-2.453,1.165-4.934,1.668-7.419.585-2.888,1.145-5.782,1.836-8.647A60.13,60.13,0,0,1,196.1,13.51a32.194,32.194,0,0,1,3.354-6.76c.441-.662.925-1.292,1.416-1.917a1.162,1.162,0,0,0,.487-.034.914.914,0,0,1,.444-.02,2.7,2.7,0,0,1,.229.34,1.029,1.029,0,0,1,.067.793,3.982,3.982,0,0,1-.7,1.227c-.552.709-1.109,1.414-1.613,2.161a32.791,32.791,0,0,0-2.006,3.331,27.787,27.787,0,0,0-1.331,3.013c-.4,1.088-.772,2.185-1.072,3.306q-.55,2.052-.974,4.133c-.139.685-.266,1.373-.388,2.062-.109.614-.195,1.232-.308,1.845-.134.732-.28,1.463-.431,2.192-.2.954-.393,1.907-.61,2.856s-.44,1.868-.688,2.794c-.287,1.074-.584,2.147-.915,3.208-.386,1.238-.8,2.466-1.276,3.674-.513,1.307-1.071,2.595-1.685,3.858-.386.8-.821,1.568-1.251,2.342s-.9,1.522-1.375,2.27c-.563.891-1.178,1.745-1.814,2.583q-.606.8-1.274,1.556a18.624,18.624,0,0,0-1.447,1.768,3.228,3.228,0,0,0-.787,2.192.508.508,0,0,1-.149.37.825.825,0,0,1-.729.314,2.233,2.233,0,0,1-1.084-.32,4.047,4.047,0,0,1-.814-.735,3.532,3.532,0,0,1-.71-1.106,1.857,1.857,0,0,1,.3-.094c.254-.039.51-.066.766-.093a1.22,1.22,0,0,0,.6-.175A.525.525,0,0,0,178.669,56.227Z" fill="#9ccb3d"/><path d="M217.491,60.5a.359.359,0,0,0,.171.26,1.171,1.171,0,0,0,.295.4,2.873,2.873,0,0,1,.483.718.724.724,0,0,1-.164.879,1.711,1.711,0,0,1-.329.244,3.668,3.668,0,0,1-1.693.5,20.307,20.307,0,0,1-2.151-.02,3.77,3.77,0,0,1-.632-.1,1.23,1.23,0,0,1-.49-.238.513.513,0,0,1-.212-.342.369.369,0,0,1,.132-.324.365.365,0,0,0,.061.068,5.865,5.865,0,0,0,1.445.565.821.821,0,0,0,.228.016c.26,0,.52.01.78,0a1.53,1.53,0,0,0,1.051-.493.724.724,0,0,0,.056-.994,2.082,2.082,0,0,1-.368-.782,6.442,6.442,0,0,1-.1-2.095c.039-.514.14-1.024.165-1.541,0-.061.014-.122.022-.182A10.937,10.937,0,0,0,216.4,55.5a3.262,3.262,0,0,1,.022-.686,4.23,4.23,0,0,0,.063-.911c0-.749,0-1.5,0-2.248a1.265,1.265,0,0,0-.019-.365,2.659,2.659,0,0,1-.064-.727,4.966,4.966,0,0,0-.032-.915c-.1-.466-.036-.941-.142-1.408-.083-.368-.066-.757-.12-1.133-.07-.5-.182-.987-.248-1.484-.138-1.043-.361-2.069-.6-3.091-.267-1.157-.561-2.31-.922-3.443-.162-.509-.338-1.013-.477-1.528-.247-.915-.6-1.8-.913-2.685-.376-1.064-.812-2.106-1.224-3.157-.451-1.151-.937-2.287-1.447-3.412-.157-.348-.315-.7-.467-1.045q-.4-.924-.8-1.849c-.229-.533-.467-1.061-.682-1.6-.277-.694-.532-1.4-.8-2.093a32.4,32.4,0,0,1-1.032-3.176,27.4,27.4,0,0,1-.855-4.2,16.407,16.407,0,0,1-.17-1.954.758.758,0,0,0-.01-.229,3.648,3.648,0,0,1-.072-1.047c-.005-.55,0-1.1,0-1.652,0-.258.039-.516.057-.772.038-.562.068-1.125.118-1.687a3.231,3.231,0,0,0-.09-.586,1.131,1.131,0,0,0-.652-.98,1.424,1.424,0,0,1-.187-.126.324.324,0,0,1,.43-.151,2.632,2.632,0,0,1,.916.4,5.3,5.3,0,0,0,.493.331,1.932,1.932,0,0,0,1.026.342,15.482,15.482,0,0,0-.69,2.036,14.154,14.154,0,0,0-.338,2.216,20.258,20.258,0,0,0,.425,5.465,55.371,55.371,0,0,0,2.293,7.863c.9,2.5,1.928,4.951,2.936,7.409.927,2.26,1.852,4.521,2.647,6.833a42.039,42.039,0,0,1,1.572,5.737c.23,1.2.4,2.409.527,3.626a51.388,51.388,0,0,1,.108,7.052c-.05,1.436-.058,2.873-.012,4.309a3.484,3.484,0,0,0,.237,1.254A.98.98,0,0,0,217.491,60.5Z" fill="#62a412"/><path d="M200.805,4.754c-.028-.032-.076-.061-.082-.1a.819.819,0,0,1,.25-.753c.586-.559,1.117-1.167,1.66-1.767a2.215,2.215,0,0,1,1.464-.679.952.952,0,0,0,.533-.22,5.515,5.515,0,0,1,2.73-1.2,2.833,2.833,0,0,1,2.126.505.242.242,0,0,1,.05.073c-.1.048-.1.138-.116.23a7.037,7.037,0,0,1-.2,1.028,9.2,9.2,0,0,1-.73,1.524,3.992,3.992,0,0,1-.875,1.107,1.472,1.472,0,0,1-1.808.244c-.117-.071-.243-.128-.366-.188-.471-.232-.514-.233-.864.148-.237.257-.445.54-.67.808a1.482,1.482,0,0,1-.226.222.134.134,0,0,1-.2-.038.592.592,0,0,1-.1-.2,4.192,4.192,0,0,0-.493-1.022.474.474,0,0,0-.591-.22c-.44.121-.877.249-1.315.377A.27.27,0,0,0,200.805,4.754Z" fill="#a47f5f"/><path d="M200.805,4.754a.27.27,0,0,1,.182-.127c.438-.128.875-.256,1.315-.377a.474.474,0,0,1,.591.22,4.192,4.192,0,0,1,.493,1.022.592.592,0,0,0,.1.2.134.134,0,0,0,.2.038,1.482,1.482,0,0,0,.226-.222c.225-.268.433-.551.67-.808.35-.381.393-.38.864-.148.123.06.249.117.366.188a1.472,1.472,0,0,0,1.808-.244,3.992,3.992,0,0,0,.875-1.107,9.2,9.2,0,0,0,.73-1.524,7.037,7.037,0,0,0,.2-1.028c.016-.092.02-.182.116-.23a2.127,2.127,0,0,1,.681,1.982,2.7,2.7,0,0,1-.539,1.341c-.333.435-.642.887-.939,1.348-.025.038-.052.074-.079.112a1.92,1.92,0,0,1-1.154.837,1.932,1.932,0,0,1-1.026-.342,5.3,5.3,0,0,1-.493-.331,2.632,2.632,0,0,0-.916-.4.324.324,0,0,0-.43.151,1.04,1.04,0,0,0-.463.267.993.993,0,0,0-.431.888c0,.2-.012.391-.019.587-.231-.015-.339-.191-.438-.358a5.124,5.124,0,0,1-.308-.658,2.764,2.764,0,0,0-.647-1.085.556.556,0,0,0-.532-.174.914.914,0,0,0-.444.02,1.162,1.162,0,0,1-.487.034Z" fill="#6b4326"/><path d="M190.17,97.091a.333.333,0,0,1-.288-.188c-.166-.288-.347-.566-.51-.855-.223-.395-.432-.8-.652-1.194a.892.892,0,0,1-.121-.521,4.477,4.477,0,0,0,.694-.654,7.879,7.879,0,0,0,1.052-1.131.312.312,0,0,1,.272-.142c.188.428.371.859.566,1.284.15.33.317.653.475.979.111.231.221.463.332.7-.479.47-.956.942-1.438,1.408C190.433,96.887,190.3,96.985,190.17,97.091Z" fill="#550a02"/><path d="M178.669,56.227a.525.525,0,0,1-.331.217.6.6,0,0,0-.3-.2c-.507-.242-1.02-.473-1.524-.723a3.014,3.014,0,0,0-.951-.291.462.462,0,0,1,.145-.367,1.347,1.347,0,0,0,.327-.374,1.514,1.514,0,0,1,.2.109,26,26,0,0,0,2.284,1.526C178.571,56.154,178.619,56.192,178.669,56.227Z" fill="#6b0f02"/><path d="M232.183,81.041c0,.52,0,.9,0,1.285a1.935,1.935,0,0,1-.072.725.681.681,0,0,0-.018.227,5.271,5.271,0,0,1-.078,1.047,8.02,8.02,0,0,0-.091.813,26.991,26.991,0,0,1-.774,3.886,20.942,20.942,0,0,1-1.229,3.343,19.33,19.33,0,0,1-1.257,2.28,15.344,15.344,0,0,1-1.258,1.68c-.356.421-.741.81-1.125,1.2a16.783,16.783,0,0,1-2.721,2.221,18.8,18.8,0,0,1-2.69,1.468,20.936,20.936,0,0,1-2.624.938c-.731.219-1.48.344-2.222.5-.306.065-.632.092-.946.136-.38.054-.765.022-1.136.086a21.3,21.3,0,0,1-2.743.078c-.5-.142-1.035-.02-1.537-.172a5.055,5.055,0,0,1-1-.11,11.014,11.014,0,0,1-1.12-.2,23.833,23.833,0,0,1-3.254-.9,22.2,22.2,0,0,1-2.282-.941,23.722,23.722,0,0,1-3.319-1.931c-.6-.424-1.166-.878-1.725-1.35-.527-.445-1-.94-1.492-1.42-.348-.341-.632-.741-.952-1.107a18.764,18.764,0,0,1-2.8-4.749,18.8,18.8,0,0,1-.863-2.791,11.63,11.63,0,0,1-.247-1.3c-.035-.316-.111-.627-.161-.942a2.432,2.432,0,0,1-.015-.32,1.124,1.124,0,0,0-.048-.407.4.4,0,0,1-.037-.178c.049-.628-.135-1.243-.1-1.87.015-.29,0-.581,0-.872a3.658,3.658,0,0,1,.069-.864,3.179,3.179,0,0,0,.022-.685,1.6,1.6,0,0,1,.067-.634.533.533,0,0,0,.023-.18,14.085,14.085,0,0,1,.345-2.294c.087-.4.145-.81.252-1.2a22.06,22.06,0,0,1,.684-2.178A17.665,17.665,0,0,1,192.6,71.3a16,16,0,0,1,1.182-1.953c.39-.526.726-1.091,1.139-1.6.22-.272.425-.558.666-.81a14.052,14.052,0,0,1,1.6-1.506,14.567,14.567,0,0,1,1.656-1.136c.385-.218.774-.429,1.169-.628a11.5,11.5,0,0,1,1.607-.66,14.208,14.208,0,0,1,2.52-.621,9.682,9.682,0,0,1,1.584-.174,7.381,7.381,0,0,1,2.007-.08,3.18,3.18,0,0,1,2.551,1.3,5.861,5.861,0,0,0,1.368,1.4,6.038,6.038,0,0,0,2.1.869,5.162,5.162,0,0,0,1.136.092c.474,0,.948,0,1.422,0a2.509,2.509,0,0,0,.862-.075.887.887,0,0,1,.274-.016,2.227,2.227,0,0,0,.725-.073,1.013,1.013,0,0,1,.318-.019,2.091,2.091,0,0,0,.68-.071,1.185,1.185,0,0,1,.364-.02c.5,0,1.009,0,1.514,0a10.334,10.334,0,0,1,3.647.742,10.177,10.177,0,0,1,2.442,1.421,3.8,3.8,0,0,1,.3.283,1.659,1.659,0,0,0,.382.326.423.423,0,0,1,.141.115c.434.549.942,1.038,1.336,1.62a9.4,9.4,0,0,1,.525.857,18.167,18.167,0,0,1,1.31,2.971,19.386,19.386,0,0,1,.608,2.432c.085.463.211.922.249,1.388a7.1,7.1,0,0,1,.114,1.318.393.393,0,0,0,0,.137A10.064,10.064,0,0,1,232.183,81.041Zm-20.291-3.232a6.139,6.139,0,0,0,1.414-.08.855.855,0,0,1,.183,0,11.2,11.2,0,0,0,1.367-.077c.449-.069.9-.12,1.353-.194a12.774,12.774,0,0,0,2.466-.663,7.7,7.7,0,0,0,1.291-.587,14.491,14.491,0,0,0,1.622-1.105,5.552,5.552,0,0,0,1.626-2.12,1.73,1.73,0,0,0,.156-.892,1.015,1.015,0,0,0-.55-.842,1.4,1.4,0,0,0-.98-.09,10.025,10.025,0,0,0-1.787.557c-.363.157-.736.293-1.108.43a15.589,15.589,0,0,1-2.414.686,8.663,8.663,0,0,1-1.947.22c-.4-.014-.8-.011-1.192,0a5.493,5.493,0,0,1-1.129-.148,7.894,7.894,0,0,1-2.18-.805,5.046,5.046,0,0,1-1.792-1.589c-.457-.633-.823-1.32-1.218-1.99a8.329,8.329,0,0,0-.924-1.36,4.837,4.837,0,0,0-1.927-1.353,5.382,5.382,0,0,0-1.595-.365,7.27,7.27,0,0,0-1.55.064,7.506,7.506,0,0,0-2.716,1.037,7.06,7.06,0,0,0-1.1.813,18.2,18.2,0,0,0-1.9,2.22,15.8,15.8,0,0,0-1.691,2.715c-.254.5-.477,1.024-.68,1.55a15.929,15.929,0,0,0-.806,2.76c-.077.4-.147.807-.213,1.212a8.739,8.739,0,0,1-.15,1.221,19.849,19.849,0,0,0,.168,3.375,16.522,16.522,0,0,0,.583,2.485,10.98,10.98,0,0,0,1.208,2.611,4.346,4.346,0,0,0,1.188,1.313,2.531,2.531,0,0,0,1.084.466,2.675,2.675,0,0,0,2.109-.7,6.128,6.128,0,0,0,1.381-1.81,31.288,31.288,0,0,0,1.539-3.571c.215-.554.418-1.115.668-1.653a7.617,7.617,0,0,1,1.712-2.412,4.7,4.7,0,0,1,1.587-.973,7.25,7.25,0,0,1,2.55-.441q1.239,0,2.477.006a1.464,1.464,0,0,1,.409.031,1.97,1.97,0,0,0,.545.052C211.281,77.811,211.541,77.809,211.892,77.809Zm15.518-6.815a1.1,1.1,0,0,0-.114-.554,1.436,1.436,0,0,0-1.088-.952,1.148,1.148,0,0,0-1.375.65,2.133,2.133,0,0,0-.254,1.278c.01.135.064.266.079.4a1.252,1.252,0,0,0,.249.582.966.966,0,0,0,1.285.357,2.108,2.108,0,0,0,.923-.794A1.573,1.573,0,0,0,227.41,70.994Z" fill="#b62f05"/><path d="M190.617,92.406a.312.312,0,0,0-.272.142,7.879,7.879,0,0,1-1.052,1.131,4.477,4.477,0,0,1-.694.654h-.091c-.315-.644-.568-1.313-.835-1.977a26.466,26.466,0,0,1-.868-2.835c-.175-.627-.281-1.274-.4-1.914a12.787,12.787,0,0,1-.256-1.569,9.1,9.1,0,0,1-.116-1.317.621.621,0,0,0-.007-.228,3.728,3.728,0,0,1-.082-1.181c-.006-.963,0-1.925,0-2.888a1.319,1.319,0,0,1,.058-.543.371.371,0,0,0,.027-.133,11.248,11.248,0,0,1,.085-1.32c.07-.447.119-.9.175-1.351.052-.422.132-.839.192-1.259.094-.648.236-1.284.391-1.917a20.969,20.969,0,0,1,.677-2.321c.216-.586.454-1.163.684-1.743a17.771,17.771,0,0,1,1.864-3.348c.237-.351.521-.673.787-1a.407.407,0,0,0,.107-.246h.092a1.119,1.119,0,0,0,.346.359,5.436,5.436,0,0,1,1.032,1.029c.032.226-.128.376-.242.526a13.591,13.591,0,0,0-1.165,1.908c-.2.378-.394.759-.575,1.147a21.882,21.882,0,0,0-1.241,3.383c-.248.895-.4,1.807-.6,2.711-.073.34-.087.692-.127,1.039a2.159,2.159,0,0,1-.044.361,1.515,1.515,0,0,0-.047.407,2.285,2.285,0,0,1-.071.725,1.155,1.155,0,0,0-.019.364c0,.825,0,1.65,0,2.475a2.754,2.754,0,0,0,.078.952.39.39,0,0,1,.01.137,14.293,14.293,0,0,0,.169,1.812c.081.833.241,1.651.4,2.469.131.67.313,1.331.5,1.987.2.688.434,1.364.647,2.047.123.394.279.773.44,1.152A1.135,1.135,0,0,1,190.617,92.406Z" fill="#720e01"/><path d="M212.9,62.48a.369.369,0,0,0-.132.324.513.513,0,0,0,.212.342,1.23,1.23,0,0,0,.49.238,3.77,3.77,0,0,0,.632.1,20.307,20.307,0,0,0,2.151.02,3.668,3.668,0,0,0,1.693-.5,1.711,1.711,0,0,0,.329-.244.724.724,0,0,0,.164-.879,2.873,2.873,0,0,0-.483-.718,1.171,1.171,0,0,1-.295-.4,5.752,5.752,0,0,1,1.087.056c.31.053.631.055.944.116a1.91,1.91,0,0,1,.627.251.7.7,0,0,1,.28.5.391.391,0,0,1-.05.215,2.034,2.034,0,0,1-.729.856c-.134.1-.282.182-.313.368a.994.994,0,0,0-.43.144,7.489,7.489,0,0,1-2.343.718,14.447,14.447,0,0,1-1.915.072,9.758,9.758,0,0,1-1.721-.164c-.27-.042-.545-.059-.811-.119a2.07,2.07,0,0,1-1.178-.551.935.935,0,0,1-.123-1.278,2.068,2.068,0,0,1,.914-.379c.255-.043.511-.066.765-.106.478-.075.953-.164,1.43-.248a1.319,1.319,0,0,1-.511.619A3.473,3.473,0,0,0,212.9,62.48Z" fill="#390300"/><path d="M192.456,66.628a5.436,5.436,0,0,0-1.032-1.029,1.119,1.119,0,0,1-.346-.359,1.626,1.626,0,0,0,.372-.33c.32-.3.617-.619.968-.889a9.3,9.3,0,0,1,1.513-.989,5.124,5.124,0,0,1,1.107.829.818.818,0,0,1-.388.489,7.289,7.289,0,0,0-1.063,1.059c-.315.371-.639.733-.93,1.123A.285.285,0,0,1,192.456,66.628Z" fill="#550a02"/><path d="M214.1,61.2c-.477.084-.952.173-1.43.248-.254.04-.51.063-.765.106a2.068,2.068,0,0,0-.914.379,3.257,3.257,0,0,1,.1-1,.887.887,0,0,1,.134-.015c1,.039,1.994.014,2.991-.013A.341.341,0,0,1,214.1,61.2Z" fill="#720f02"/><path d="M164.82,93.6c-.184,0-.367,0-.551,0a12.841,12.841,0,0,1-2.043-.163,19.124,19.124,0,0,1-2.143-.431,20.414,20.414,0,0,1-2.513-.841,21.172,21.172,0,0,1-2.512-1.221,20.337,20.337,0,0,1-2.838-1.915c-.462-.372-.909-.763-1.374-1.131a9.979,9.979,0,0,1-.721-.7c-.579-.565-1.107-1.174-1.627-1.794a22.877,22.877,0,0,1-1.756-2.392c-.294-.463-.581-.933-.842-1.415a22.358,22.358,0,0,1-1.7-3.994,17.765,17.765,0,0,1-.661-2.84c-.068-.5-.117-1-.189-1.489a24.965,24.965,0,0,1-.073-2.607,1.062,1.062,0,0,1,.052-.406.683.683,0,0,0,.035-.225,12.492,12.492,0,0,1,.333-2.251,18.306,18.306,0,0,1,1.264-3.807c.165-.344.307-.7.48-1.039a27.93,27.93,0,0,1,1.913-3.17c.354-.514.724-1.019,1.126-1.5.275-.325.55-.652.835-.97.357-.4.719-.789,1.095-1.167.441-.444.931-.832,1.4-1.242.323-.281.661-.538,1-.8.523-.395,1.074-.748,1.63-1.095a14.674,14.674,0,0,1,1.456-.771,11.335,11.335,0,0,1,1.437-.593c.493-.159.956-.4,1.453-.55a16.535,16.535,0,0,1,2.305-.546c.288-.046.581-.03.859-.088a10.761,10.761,0,0,1,1.872-.078,1.241,1.241,0,0,1,.5.053.675.675,0,0,0,.225.034,10.463,10.463,0,0,1,2.419.419,14.491,14.491,0,0,1,2.077.7c.657.287,1.3.614,1.929.957a11.309,11.309,0,0,1,1.352.854,4.176,4.176,0,0,1,1.378,1.5,3.2,3.2,0,0,1,.232.783c.1.48.066.97.169,1.448a5.191,5.191,0,0,0,.646,1.747,7.119,7.119,0,0,0,1.946,1.975,20.506,20.506,0,0,0,1.839,1.112,33.828,33.828,0,0,1,3,1.755,10.427,10.427,0,0,1,1.863,1.612,9.757,9.757,0,0,1,2.452,4.976,12.645,12.645,0,0,1,.185,2.592,1.339,1.339,0,0,1-.051.361.851.851,0,0,0-.037.27,8.542,8.542,0,0,1-.229,1.623,15.628,15.628,0,0,1-.728,2.545,13.287,13.287,0,0,1-.7,1.689c-.063.123-.125.245-.184.37a25.46,25.46,0,0,1-2.117,3.635c-.448.654-.939,1.274-1.432,1.893-.515.645-1.08,1.241-1.649,1.837-.5.529-1.033,1.035-1.565,1.533-.5.467-1.061.864-1.6,1.289a16.054,16.054,0,0,1-1.585,1.082,17.426,17.426,0,0,1-2.188,1.145c-.477.207-.964.386-1.451.555a14.033,14.033,0,0,1-2.292.6c-.479.08-.966.124-1.441.207A19.016,19.016,0,0,1,164.82,93.6Zm11.118-21.474a7.01,7.01,0,0,0,1.455-.093,5.42,5.42,0,0,0,2.057-.841,1.311,1.311,0,0,0,.623-1.285.792.792,0,0,0-.31-.586,4.07,4.07,0,0,0-.466-.29,6.724,6.724,0,0,0-1.825-.576,22.2,22.2,0,0,1-2.343-.595,15.15,15.15,0,0,1-2.4-1.013,11.042,11.042,0,0,1-2.162-1.527,7.125,7.125,0,0,1-.643-.711,7.307,7.307,0,0,1-1.26-2.11,3.166,3.166,0,0,1-.253-1.247,16.55,16.55,0,0,1,.091-2.605,12.733,12.733,0,0,0-.076-2.055,4.63,4.63,0,0,0-.451-1.383,5.7,5.7,0,0,0-1.714-1.929,7.113,7.113,0,0,0-2.183-1.032,5,5,0,0,0-1.576-.23c-.336.015-.673.011-1.009,0a5.2,5.2,0,0,0-1.173.153c-.511.1-.985.325-1.486.456a15.636,15.636,0,0,0-2.765,1.08,15.064,15.064,0,0,0-2.579,1.562,17.514,17.514,0,0,0-2.081,1.785c-.3.307-.595.611-.866.944-.336.413-.678.822-.986,1.258a15.031,15.031,0,0,0-1.707,3.075c-.158.4-.314.8-.436,1.2a10.739,10.739,0,0,0-.431,1.819,8.154,8.154,0,0,0-.134,1.178c.008.275-.005.55,0,.825a3.3,3.3,0,0,0,.566,1.807,2.077,2.077,0,0,0,1.736.941c.2.006.4-.006.6,0A3.116,3.116,0,0,0,151,69.862a12.719,12.719,0,0,0,2.541-1.353c.889-.59,1.758-1.21,2.641-1.809a8.831,8.831,0,0,1,2.494-1.231,4.521,4.521,0,0,1,1.435-.233,5.782,5.782,0,0,1,.824.021,6.954,6.954,0,0,1,2.024.7,20.329,20.329,0,0,1,2.3,1.5c.974.708,1.942,1.422,2.965,2.062a23.648,23.648,0,0,0,2.6,1.431,13.941,13.941,0,0,0,2.362.854,8.288,8.288,0,0,0,2.481.326C175.722,72.123,175.783,72.126,175.938,72.126Zm6.374.637a2.224,2.224,0,0,0,1.324-.42.935.935,0,0,0,.2-.191,1.546,1.546,0,0,0-.241-2.235,1.033,1.033,0,0,0-.981-.24,1.785,1.785,0,0,0-.961.662,4.08,4.08,0,0,0-.3.459,1.784,1.784,0,0,0-.278.993,1,1,0,0,0,.918.969A2.274,2.274,0,0,0,182.312,72.763Z" fill="#b62f05"/><path d="M193.931,63.032a9.3,9.3,0,0,0-1.513.989c-.351.27-.648.589-.968.889a1.626,1.626,0,0,1-.372.33h-.092a11.285,11.285,0,0,0-1.34-.947,16.357,16.357,0,0,0-2.1-1.107c-.839-.364-1.694-.687-2.544-1.021-.4-.156-.809-.271-1.212-.411-.6-.209-1.206-.426-1.811-.633-.1-.034-.161-.079-.177-.182a6.685,6.685,0,0,0,1.036-.112,1.056,1.056,0,0,0,.568-.269.486.486,0,0,0,.211-.476,1.368,1.368,0,0,0-.344-.68,7.853,7.853,0,0,0-1.671-1.317.318.318,0,0,1-.006-.363c2.317,1.036,4.711,1.87,7.095,2.733a25.505,25.505,0,0,1,4.291,1.949A4.962,4.962,0,0,1,193.931,63.032Z" fill="#6b0f02"/><path d="M181.6,58.084a7.853,7.853,0,0,1,1.671,1.317,1.368,1.368,0,0,1,.344.68.486.486,0,0,1-.211.476,1.056,1.056,0,0,1-.568.269,6.685,6.685,0,0,1-1.036.112,6.97,6.97,0,0,1-2.589-.665,12.035,12.035,0,0,1-2.582-1.705c-.479-.405-.91-.855-1.364-1.284a1.8,1.8,0,0,1-.5-1.051.913.913,0,0,1,.46-.874,3.559,3.559,0,0,1,.34-.13,3.014,3.014,0,0,1,.951.291c.5.25,1.017.481,1.524.723a.6.6,0,0,1,.3.2,1.22,1.22,0,0,1-.6.175c-.256.027-.512.054-.766.093a1.857,1.857,0,0,0-.3.094.368.368,0,0,0-.3.441.971.971,0,0,0,.317.64,10.757,10.757,0,0,0,1.532,1.227,5.352,5.352,0,0,0,1.718.834,2.375,2.375,0,0,0,1.037.076.721.721,0,0,0,.646-.66,2.832,2.832,0,0,0,.011-.412C181.628,58.663,181.614,58.374,181.6,58.084Z" fill="#390300"/><path d="M181.6,58.084c.012.29.026.579.034.868a2.832,2.832,0,0,1-.011.412.721.721,0,0,1-.646.66,2.375,2.375,0,0,1-1.037-.076,5.352,5.352,0,0,1-1.718-.834,10.757,10.757,0,0,1-1.532-1.227.971.971,0,0,1-.317-.64.368.368,0,0,1,.3-.441,3.532,3.532,0,0,0,.71,1.106,4.047,4.047,0,0,0,.814.735,2.233,2.233,0,0,0,1.084.32.825.825,0,0,0,.729-.314.508.508,0,0,0,.149-.37,3.228,3.228,0,0,1,.787-2.192,18.624,18.624,0,0,1,1.447-1.768q.666-.753,1.274-1.556c.636-.838,1.251-1.692,1.814-2.583.472-.748.945-1.495,1.375-2.27s.865-1.545,1.251-2.342c.614-1.263,1.172-2.551,1.685-3.858.474-1.208.89-2.436,1.276-3.674.331-1.061.628-2.134.915-3.208.248-.926.473-1.859.688-2.794s.413-1.9.61-2.856c.151-.729.3-1.46.431-2.192.113-.613.2-1.231.308-1.845.122-.689.249-1.377.388-2.062q.423-2.082.974-4.133c.3-1.121.67-2.218,1.072-3.306a27.787,27.787,0,0,1,1.331-3.013A32.791,32.791,0,0,1,199.79,9.3c.5-.747,1.061-1.452,1.613-2.161a3.982,3.982,0,0,0,.7-1.227,1.029,1.029,0,0,0-.067-.793,2.7,2.7,0,0,0-.229-.34.556.556,0,0,1,.532.174,2.764,2.764,0,0,1,.647,1.085,5.124,5.124,0,0,0,.308.658c.1.167.207.343.438.358l.011.256c-.172-.02-.282.1-.407.185a11.786,11.786,0,0,0-2.563,2.341,19.112,19.112,0,0,0-2.539,4.128,40.134,40.134,0,0,0-1.92,5.147c-.774,2.5-1.389,5.034-1.935,7.589-.58,2.718-1.143,5.44-1.747,8.153a50.52,50.52,0,0,1-2,6.9,37.823,37.823,0,0,1-4.379,8.337c-.814,1.165-1.654,2.313-2.467,3.478-.525.752-1.026,1.52-1.534,2.283a4.594,4.594,0,0,0-.477.887,1.979,1.979,0,0,0-.175.98A.316.316,0,0,0,181.6,58.084Z" fill="#62a412"/><path d="M203.739,7.31l-.011-.256c.007-.2.021-.392.019-.587a.993.993,0,0,1,.431-.888,1.04,1.04,0,0,1,.463-.267,1.424,1.424,0,0,0,.187.126,1.131,1.131,0,0,1,.652.98,3.231,3.231,0,0,1,.09.586c-.05.562-.08,1.125-.118,1.687-.018.256-.056.514-.057.772,0,.551-.005,1.1,0,1.652a3.648,3.648,0,0,0,.072,1.047.758.758,0,0,1,.01.229,16.407,16.407,0,0,0,.17,1.954,27.4,27.4,0,0,0,.855,4.2,32.4,32.4,0,0,0,1.032,3.176c.269.7.524,1.4.8,2.093.215.539.453,1.067.682,1.6q.4.925.8,1.849c.152.349.31.7.467,1.045.51,1.125,1,2.261,1.447,3.412.412,1.051.848,2.093,1.224,3.157.315.89.666,1.77.913,2.685.139.515.315,1.019.477,1.528.361,1.133.655,2.286.922,3.443.236,1.022.459,2.048.6,3.091.066.5.178.987.248,1.484.054.376.037.765.12,1.133.106.467.044.942.142,1.408a4.966,4.966,0,0,1,.032.915,2.659,2.659,0,0,0,.064.727,1.265,1.265,0,0,1,.019.365c0,.75,0,1.5,0,2.248a4.23,4.23,0,0,1-.063.911,3.262,3.262,0,0,0-.022.686,10.937,10.937,0,0,1-.159,1.542c-.008.06-.019.121-.022.182-.025.517-.126,1.027-.165,1.541a6.442,6.442,0,0,0,.1,2.095,2.082,2.082,0,0,0,.368.782.724.724,0,0,1-.056.994,1.53,1.53,0,0,1-1.051.493c-.26.008-.52,0-.78,0a.821.821,0,0,1-.228-.016,5.865,5.865,0,0,1-1.445-.565.365.365,0,0,1-.061-.068,3.473,3.473,0,0,1,.684-.659,1.319,1.319,0,0,0,.511-.619.341.341,0,0,0,.112-.293,1.848,1.848,0,0,0,.257-.535A19.172,19.172,0,0,0,215.4,56.6a32.333,32.333,0,0,0,.018-9.405,47.787,47.787,0,0,0-1.715-7.21c-.84-2.668-1.855-5.272-2.92-7.856-.99-2.4-2-4.794-2.976-7.2-.825-2.022-1.585-4.07-2.246-6.152a43.8,43.8,0,0,1-1.42-5.683c-.146-.827-.241-1.662-.332-2.5-.088-.807-.063-1.618-.121-2.425A6.493,6.493,0,0,1,203.739,7.31Z" fill="#9ccb3d"/><path d="M211.892,77.809c-.351,0-.611,0-.87,0a1.97,1.97,0,0,1-.545-.052,1.464,1.464,0,0,0-.409-.031q-1.239-.006-2.477-.006a7.25,7.25,0,0,0-2.55.441,4.7,4.7,0,0,0-1.587.973,7.617,7.617,0,0,0-1.712,2.412c-.25.538-.453,1.1-.668,1.653a31.288,31.288,0,0,1-1.539,3.571,6.128,6.128,0,0,1-1.381,1.81,2.675,2.675,0,0,1-2.109.7,2.531,2.531,0,0,1-1.084-.466,4.346,4.346,0,0,1-1.188-1.313,10.98,10.98,0,0,1-1.208-2.611,16.522,16.522,0,0,1-.583-2.485,19.849,19.849,0,0,1-.168-3.375,8.739,8.739,0,0,0,.15-1.221c.066-.405.136-.809.213-1.212a15.929,15.929,0,0,1,.806-2.76c.2-.526.426-1.047.68-1.55a15.8,15.8,0,0,1,1.691-2.715,18.2,18.2,0,0,1,1.9-2.22,7.06,7.06,0,0,1,1.1-.813,7.506,7.506,0,0,1,2.716-1.037,7.27,7.27,0,0,1,1.55-.064,5.382,5.382,0,0,1,1.595.365,4.837,4.837,0,0,1,1.927,1.353,8.329,8.329,0,0,1,.924,1.36c.395.67.761,1.357,1.218,1.99a5.046,5.046,0,0,0,1.792,1.589,7.894,7.894,0,0,0,2.18.805,5.493,5.493,0,0,0,1.129.148c.4-.009.8-.012,1.192,0a8.663,8.663,0,0,0,1.947-.22,15.589,15.589,0,0,0,2.414-.686c.372-.137.745-.273,1.108-.43a10.025,10.025,0,0,1,1.787-.557,1.4,1.4,0,0,1,.98.09,1.015,1.015,0,0,1,.55.842,1.73,1.73,0,0,1-.156.892,5.552,5.552,0,0,1-1.626,2.12,14.491,14.491,0,0,1-1.622,1.105,7.7,7.7,0,0,1-1.291.587,12.774,12.774,0,0,1-2.466.663c-.45.074-.9.125-1.353.194a11.2,11.2,0,0,1-1.367.077.855.855,0,0,0-.183,0A6.139,6.139,0,0,1,211.892,77.809Zm-11.075-9.551a3.62,3.62,0,0,0-1.963.544,6.115,6.115,0,0,0-1.78,1.633,10.957,10.957,0,0,0-2.185,4.889,6.311,6.311,0,0,0,.018,2.321,3.333,3.333,0,0,0,.364,1.032,1.773,1.773,0,0,0,1.691.974,2.783,2.783,0,0,0,.675-.116,5.084,5.084,0,0,0,1.509-.758A9.334,9.334,0,0,0,201.1,76.92a11.411,11.411,0,0,0,2.1-3.992,5.325,5.325,0,0,0,.169-2.581,2.47,2.47,0,0,0-1.522-1.926A2.512,2.512,0,0,0,200.817,68.258Zm6.7,4.563v-.2a1.013,1.013,0,0,0-1.35-.988,1.856,1.856,0,0,0-.788.442,4.181,4.181,0,0,0-1.246,2.628,1.765,1.765,0,0,0,.139.85.761.761,0,0,0,1.008.456,2.236,2.236,0,0,0,.643-.342,4.346,4.346,0,0,0,1.4-1.885A2.3,2.3,0,0,0,207.518,72.821Z" fill="#ee3724"/><path d="M227.41,70.994a1.573,1.573,0,0,1-.295.968,2.108,2.108,0,0,1-.923.794.966.966,0,0,1-1.285-.357,1.252,1.252,0,0,1-.249-.582c-.015-.135-.069-.266-.079-.4a2.133,2.133,0,0,1,.254-1.278,1.148,1.148,0,0,1,1.375-.65,1.436,1.436,0,0,1,1.088.952A1.1,1.1,0,0,1,227.41,70.994Z" fill="#ee3724"/><path d="M175.938,72.126c-.155,0-.216,0-.277,0a8.288,8.288,0,0,1-2.481-.326,13.941,13.941,0,0,1-2.362-.854,23.648,23.648,0,0,1-2.6-1.431c-1.023-.64-1.991-1.354-2.965-2.062a20.329,20.329,0,0,0-2.3-1.5,6.954,6.954,0,0,0-2.024-.7,5.782,5.782,0,0,0-.824-.021,4.521,4.521,0,0,0-1.435.233,8.831,8.831,0,0,0-2.494,1.231c-.883.6-1.752,1.219-2.641,1.809A12.719,12.719,0,0,1,151,69.862a3.116,3.116,0,0,1-1.247.247c-.2-.009-.4,0-.6,0a2.077,2.077,0,0,1-1.736-.941,3.3,3.3,0,0,1-.566-1.807c-.008-.275,0-.55,0-.825a8.154,8.154,0,0,1,.134-1.178,10.739,10.739,0,0,1,.431-1.819c.122-.408.278-.807.436-1.2a15.031,15.031,0,0,1,1.707-3.075c.308-.436.65-.845.986-1.258.271-.333.569-.637.866-.944a17.514,17.514,0,0,1,2.081-1.785,15.064,15.064,0,0,1,2.579-1.562,15.636,15.636,0,0,1,2.765-1.08c.5-.131.975-.355,1.486-.456a5.2,5.2,0,0,1,1.173-.153c.336.009.673.013,1.009,0a5,5,0,0,1,1.576.23,7.113,7.113,0,0,1,2.183,1.032,5.7,5.7,0,0,1,1.714,1.929,4.63,4.63,0,0,1,.451,1.383,12.733,12.733,0,0,1,.076,2.055,16.55,16.55,0,0,0-.091,2.605,3.166,3.166,0,0,0,.253,1.247,7.307,7.307,0,0,0,1.26,2.11,7.125,7.125,0,0,0,.643.711,11.042,11.042,0,0,0,2.162,1.527,15.15,15.15,0,0,0,2.4,1.013,22.2,22.2,0,0,0,2.343.595,6.724,6.724,0,0,1,1.825.576,4.07,4.07,0,0,1,.466.29.792.792,0,0,1,.31.586,1.311,1.311,0,0,1-.623,1.285,5.42,5.42,0,0,1-2.057.841A7.01,7.01,0,0,1,175.938,72.126Zm-19.846-9.558a5.91,5.91,0,0,0,1.422-.12,11.7,11.7,0,0,0,4.807-2.053,6.69,6.69,0,0,0,1.508-1.463,3.933,3.933,0,0,0,.762-1.651,2.254,2.254,0,0,0-.535-1.961,3.3,3.3,0,0,0-1.612-1,4.851,4.851,0,0,0-2.492-.033,11.041,11.041,0,0,0-4.121,1.931,8.128,8.128,0,0,0-2.084,2.172,4.839,4.839,0,0,0-.711,1.727,1.843,1.843,0,0,0,1.015,2.061,3.24,3.24,0,0,0,.6.223A4.418,4.418,0,0,0,156.092,62.568Zm7.365,1.223a4.166,4.166,0,0,0,2.59-1.008,1.91,1.91,0,0,0,.639-.876.946.946,0,0,0-.4-1.155,1.589,1.589,0,0,0-1.136-.244,4.19,4.19,0,0,0-2.316,1.2,2.237,2.237,0,0,0-.616,1.053.741.741,0,0,0,.47.921A2.016,2.016,0,0,0,163.457,63.791Z" fill="#ee3724"/><path d="M182.312,72.763a2.274,2.274,0,0,1-.32,0,1,1,0,0,1-.918-.969,1.784,1.784,0,0,1,.278-.993,4.08,4.08,0,0,1,.3-.459,1.785,1.785,0,0,1,.961-.662,1.033,1.033,0,0,1,.981.24,1.546,1.546,0,0,1,.241,2.235.935.935,0,0,1-.2.191A2.224,2.224,0,0,1,182.312,72.763Z" fill="#ee3724"/><path d="M200.817,68.258a2.512,2.512,0,0,1,1.031.163,2.47,2.47,0,0,1,1.522,1.926,5.325,5.325,0,0,1-.169,2.581,11.411,11.411,0,0,1-2.1,3.992,9.334,9.334,0,0,1-1.955,1.857,5.084,5.084,0,0,1-1.509.758,2.783,2.783,0,0,1-.675.116,1.773,1.773,0,0,1-1.691-.974,3.333,3.333,0,0,1-.364-1.032,6.311,6.311,0,0,1-.018-2.321,10.957,10.957,0,0,1,2.185-4.889,6.115,6.115,0,0,1,1.78-1.633A3.62,3.62,0,0,1,200.817,68.258Z" fill="#f9bab3"/><path d="M207.518,72.821a2.3,2.3,0,0,1-.2.964,4.346,4.346,0,0,1-1.4,1.885,2.236,2.236,0,0,1-.643.342.761.761,0,0,1-1.008-.456,1.765,1.765,0,0,1-.139-.85,4.181,4.181,0,0,1,1.246-2.628,1.856,1.856,0,0,1,.788-.442,1.013,1.013,0,0,1,1.35.988Z" fill="#f9bab3"/><path d="M156.092,62.568a4.418,4.418,0,0,1-1.442-.171,3.24,3.24,0,0,1-.6-.223,1.843,1.843,0,0,1-1.015-2.061,4.839,4.839,0,0,1,.711-1.727,8.128,8.128,0,0,1,2.084-2.172,11.041,11.041,0,0,1,4.121-1.931,4.851,4.851,0,0,1,2.492.033,3.3,3.3,0,0,1,1.612,1,2.254,2.254,0,0,1,.535,1.961,3.933,3.933,0,0,1-.762,1.651,6.69,6.69,0,0,1-1.508,1.463,11.7,11.7,0,0,1-4.807,2.053A5.91,5.91,0,0,1,156.092,62.568Z" fill="#f9bab3"/><path d="M163.457,63.791a2.016,2.016,0,0,1-.766-.107.741.741,0,0,1-.47-.921,2.237,2.237,0,0,1,.616-1.053,4.19,4.19,0,0,1,2.316-1.2,1.589,1.589,0,0,1,1.136.244.946.946,0,0,1,.4,1.155,1.91,1.91,0,0,1-.639.876A4.166,4.166,0,0,1,163.457,63.791Z" fill="#f9bab3"/></g></g></svg>