<svg xmlns="http://www.w3.org/2000/svg" width="697.645" height="488.217" viewBox="0 0 697.645 488.217"><g id="Layer_2" data-name="Layer 2"><g id="background"><path d="M686.545,39.32,621.4,2.8A21.719,21.719,0,0,0,589.058,21.75V94.781A21.719,21.719,0,0,0,621.4,113.727l65.149-36.516A21.718,21.718,0,0,0,686.545,39.32Z" fill="#5ca058"/></g><g id="logos"><path d="M184.785,187.652a35.662,35.662,0,0,1-13.234-2.4,30.927,30.927,0,0,1-17.451-17,34.487,34.487,0,0,1,0-25.743,30.866,30.866,0,0,1,6.981-10.244,31.781,31.781,0,0,1,10.559-6.753,35.692,35.692,0,0,1,13.235-2.4,36.142,36.142,0,0,1,12.963,2.312,26.037,26.037,0,0,1,10.243,6.934l-4.261,4.26a23.631,23.631,0,0,0-8.611-5.756,29.937,29.937,0,0,0-20.758.182,25.3,25.3,0,0,0-8.521,5.529,26.013,26.013,0,0,0-5.666,8.339,27.9,27.9,0,0,0,0,20.939,25.985,25.985,0,0,0,5.666,8.34,25.269,25.269,0,0,0,8.521,5.53,28.416,28.416,0,0,0,10.605,1.949,28.016,28.016,0,0,0,10.153-1.814,24.12,24.12,0,0,0,8.611-5.8l4.261,4.259a26.471,26.471,0,0,1-10.243,6.981A35.777,35.777,0,0,1,184.785,187.652Z" fill="#e80c0c"/><path d="M239.262,139.065a22.354,22.354,0,0,1,10.2,2.221,15.986,15.986,0,0,1,6.889,6.754,23.5,23.5,0,0,1,2.493,11.421v27.647h-6.436V160.1q0-7.524-3.762-11.376t-10.56-3.853a18.271,18.271,0,0,0-8.838,2.039,13.988,13.988,0,0,0-5.8,5.893,19.635,19.635,0,0,0-2.039,9.291v25.018h-6.436V119.849h6.436v32.723l-1.269-2.447a17.3,17.3,0,0,1,7.251-8.113A22.938,22.938,0,0,1,239.262,139.065Z" fill="#e80c0c"/><path d="M290.386,187.561a26.4,26.4,0,0,1-13.053-3.127,22.713,22.713,0,0,1-8.792-8.611,24.6,24.6,0,0,1-3.173-12.555,25.221,25.221,0,0,1,3.036-12.509,22.486,22.486,0,0,1,8.34-8.566,24.589,24.589,0,0,1,23.84-.091,21.654,21.654,0,0,1,8.2,8.521,25.993,25.993,0,0,1,2.991,12.645c0,.3-.016.621-.046.952s-.045.68-.045,1.043H270.262v-4.805h37.982l-2.538,1.9a18.755,18.755,0,0,0-2.222-9.2,16.364,16.364,0,0,0-6.027-6.3,16.87,16.87,0,0,0-8.793-2.266,17.175,17.175,0,0,0-8.793,2.266,15.755,15.755,0,0,0-6.073,6.346,19.526,19.526,0,0,0-2.175,9.336v1a18.655,18.655,0,0,0,2.4,9.563,16.766,16.766,0,0,0,6.708,6.436,20.465,20.465,0,0,0,9.835,2.311,21.159,21.159,0,0,0,8.113-1.541,16.856,16.856,0,0,0,6.482-4.712l3.626,4.169a20.416,20.416,0,0,1-7.932,5.8A26.819,26.819,0,0,1,290.386,187.561Z" fill="#e80c0c"/><path d="M318.847,187.108v-47.59h6.164v12.963l-.633-2.266a15.671,15.671,0,0,1,6.707-8.294,22.2,22.2,0,0,1,11.693-2.856v6.255a5.5,5.5,0,0,1-.725-.045,5.894,5.894,0,0,0-.725-.046q-7.525,0-11.784,4.579t-4.26,13.007v24.293Z" fill="#e80c0c"/><path d="M346.4,187.108v-47.59h6.164v12.963l-.634-2.266a15.675,15.675,0,0,1,6.707-8.294,22.2,22.2,0,0,1,11.694-2.856v6.255a5.492,5.492,0,0,1-.725-.045,5.894,5.894,0,0,0-.725-.046q-7.525,0-11.785,4.579t-4.259,13.007v24.293Z" fill="#e80c0c"/><path d="M376.405,205.147a18.811,18.811,0,0,1-6.391-1.088A13.884,13.884,0,0,1,364.8,200.8l2.992-4.8a14.033,14.033,0,0,0,3.942,2.674,11.53,11.53,0,0,0,4.759.951,8.763,8.763,0,0,0,5.484-1.768,16.66,16.66,0,0,0,4.4-6.208l3.082-6.98.725-1,19.579-44.146h6.346l-23.84,53.3a27.588,27.588,0,0,1-4.4,7.342,14.02,14.02,0,0,1-5.213,3.853A16.61,16.61,0,0,1,376.405,205.147Zm12.69-16.679-21.936-48.95h6.708l19.4,43.693Z" fill="#e80c0c"/><path d="M419.824,141.967l3.988-16.68.726,3.808a4.907,4.907,0,0,1-3.49-1.315,4.548,4.548,0,0,1-1.406-3.49,4.728,4.728,0,0,1,4.805-4.9,4.444,4.444,0,0,1,3.4,1.406,4.919,4.919,0,0,1,1.315,3.489,11.736,11.736,0,0,1-.091,1.45,12.311,12.311,0,0,1-.317,1.587q-.228.863-.68,2.13l-3.9,12.51Z" fill="#e80c0c"/><path d="M451.187,187.561a36.435,36.435,0,0,1-11.149-1.676,23.908,23.908,0,0,1-8.249-4.215l2.9-5.076a27.437,27.437,0,0,0,7.433,3.761,28.581,28.581,0,0,0,9.517,1.586q6.8,0,9.79-2.13a6.625,6.625,0,0,0,2.992-5.666,5.246,5.246,0,0,0-1.677-4.124,11.01,11.01,0,0,0-4.4-2.266,54.4,54.4,0,0,0-6.073-1.314q-3.354-.544-6.662-1.269a24.448,24.448,0,0,1-6.028-2.13,11.8,11.8,0,0,1-4.4-3.853,11.347,11.347,0,0,1-1.677-6.526,11.815,11.815,0,0,1,2.176-6.98,14.366,14.366,0,0,1,6.391-4.85,26.607,26.607,0,0,1,10.288-1.768,36.037,36.037,0,0,1,9.246,1.224,25.452,25.452,0,0,1,7.614,3.219l-2.81,5.166a21.708,21.708,0,0,0-6.8-3.127,28.451,28.451,0,0,0-7.252-.952q-6.438,0-9.473,2.221a6.75,6.75,0,0,0-3.036,5.665,5.5,5.5,0,0,0,1.677,4.261,11.492,11.492,0,0,0,4.441,2.4,44.734,44.734,0,0,0,6.074,1.406q3.308.543,6.617,1.314a30.09,30.09,0,0,1,6.073,2.085,11.145,11.145,0,0,1,4.441,3.717,10.78,10.78,0,0,1,1.678,6.3,11.552,11.552,0,0,1-2.311,7.206,14.787,14.787,0,0,1-6.708,4.714A29.951,29.951,0,0,1,451.187,187.561Z" fill="#e80c0c"/><path d="M450.945,129.732a5.6,5.6,0,0,1-2.912-.759,5.483,5.483,0,0,1-2.028-2.108,6.215,6.215,0,0,1-.748-3.07,6.138,6.138,0,0,1,.748-3.071,5.523,5.523,0,0,1,2.028-2.084,5.59,5.59,0,0,1,2.912-.76,5.65,5.65,0,0,1,2.923.76,5.423,5.423,0,0,1,2.028,2.084,6.219,6.219,0,0,1,.737,3.071,6.3,6.3,0,0,1-.737,3.07,5.385,5.385,0,0,1-2.028,2.108A5.659,5.659,0,0,1,450.945,129.732Zm0-.43a5.189,5.189,0,0,0,2.686-.7,4.987,4.987,0,0,0,1.869-1.949,6.367,6.367,0,0,0,0-5.722A4.926,4.926,0,0,0,453.631,119a5.25,5.25,0,0,0-2.686-.692,5.189,5.189,0,0,0-2.675.692,5.038,5.038,0,0,0-1.869,1.926,6.268,6.268,0,0,0,0,5.722,5.038,5.038,0,0,0,4.544,2.652Z"/><path d="M464.314,117.88a5.238,5.238,0,0,1,2.493.555,3.866,3.866,0,0,1,1.621,1.643,5.65,5.65,0,0,1,.578,2.674v6.912h-.453v-6.912a4.547,4.547,0,0,0-1.111-3.309,4.149,4.149,0,0,0-3.1-1.133,5.344,5.344,0,0,0-2.653.623,4.21,4.21,0,0,0-1.7,1.746,5.559,5.559,0,0,0-.589,2.617v6.368h-.453V117.948h.453v3.331l-.046-.068a4.764,4.764,0,0,1,1.791-2.436A5.375,5.375,0,0,1,464.314,117.88Z"/><path d="M474.626,118.379v-.431h6.684v.431Zm5.1,11.353a2.707,2.707,0,0,1-2.107-.794,2.968,2.968,0,0,1-.726-2.084V115.388h.453V126.74a2.7,2.7,0,0,0,.613,1.9,2.325,2.325,0,0,0,1.79.658,2.735,2.735,0,0,0,1.949-.726l.317.317a2.428,2.428,0,0,1-1.031.635A4.025,4.025,0,0,1,479.724,129.732Z"/><path d="M487.837,129.732a5.6,5.6,0,0,1-2.912-.759,5.486,5.486,0,0,1-2.029-2.108,6.215,6.215,0,0,1-.748-3.07,6.138,6.138,0,0,1,.748-3.071,5.526,5.526,0,0,1,2.029-2.084,5.59,5.59,0,0,1,2.912-.76,5.653,5.653,0,0,1,2.923.76,5.423,5.423,0,0,1,2.028,2.084,6.218,6.218,0,0,1,.736,3.071,6.3,6.3,0,0,1-.736,3.07,5.385,5.385,0,0,1-2.028,2.108A5.662,5.662,0,0,1,487.837,129.732Zm0-.43a5.186,5.186,0,0,0,2.685-.7,4.987,4.987,0,0,0,1.869-1.949,6.359,6.359,0,0,0,0-5.722A4.926,4.926,0,0,0,490.522,119a5.246,5.246,0,0,0-2.685-.692,5.189,5.189,0,0,0-2.675.692,5.038,5.038,0,0,0-1.869,1.926,6.26,6.26,0,0,0,0,5.722,5.038,5.038,0,0,0,4.544,2.652Z"/><path d="M495.836,134.06V117.948h.453v4.306l-.227,1.586.227,1.587v8.633Zm5.687-4.328a5.416,5.416,0,0,1-4.884-2.855,6.775,6.775,0,0,1,0-6.142,5.421,5.421,0,0,1,4.884-2.855,5.618,5.618,0,0,1,2.9.76,5.5,5.5,0,0,1,2.039,2.095,6.678,6.678,0,0,1,0,6.142,5.5,5.5,0,0,1-2.039,2.1A5.627,5.627,0,0,1,501.523,129.732Zm0-.43a5.247,5.247,0,0,0,2.686-.692,4.918,4.918,0,0,0,1.87-1.937,6.361,6.361,0,0,0,0-5.723,5.018,5.018,0,0,0-1.87-1.937,5.481,5.481,0,0,0-5.371,0,5.009,5.009,0,0,0-1.869,1.937,6.361,6.361,0,0,0,0,5.723,4.909,4.909,0,0,0,1.869,1.937A5.246,5.246,0,0,0,501.523,129.3Z"/><path d="M130.379,487.39c.553.017.6.411.618.827A1.244,1.244,0,0,1,130.379,487.39Z" fill="#6b0f02"/><path d="M130,486.873a.582.582,0,0,1,.473.579A.746.746,0,0,1,130,486.873Z" fill="#6b0f02"/><path d="M539.645,318.375a2.758,2.758,0,0,1-.437-.093A54.491,54.491,0,0,1,519.634,305.7a50.044,50.044,0,0,1-7.964-10.685,3.037,3.037,0,0,0-.529-.841c-.22-.459-.437-.92-.659-1.379-.314-.648-.644-1.289-.943-1.944-.386-.844-.749-1.7-1.122-2.549a2.384,2.384,0,0,0-.091-.349c-.318-.752-.63-1.5-.873-2.287-.422-1.356-.891-2.7-1.284-4.063-.375-1.3-.737-2.616-1-3.945-.317-1.624-.635-3.248-.8-4.9a28.492,28.492,0,0,1-.334-3.6.765.765,0,0,0-.02-.271,5.433,5.433,0,0,1-.155-1.891c-.007-1.637,0-3.275,0-4.913a2.311,2.311,0,0,1,.038-.723,4.5,4.5,0,0,0,.141-1.439,3,3,0,0,1,.094-.808,4.339,4.339,0,0,0,.088-.716c.079-.688.105-1.388.251-2.062.387-1.8.7-3.606,1.189-5.383a43.407,43.407,0,0,1,2.465-6.716c.358-.769.744-1.526,1.14-2.276a26.922,26.922,0,0,1,2.314-3.788c.226-.3.543-.595.48-1.044a.578.578,0,0,0,.4-.19c.577-.775,1.221-1.494,1.846-2.23a14.408,14.408,0,0,1,2.11-2.1,1.626,1.626,0,0,0,.771-.971c.353.069.551-.2.783-.375a25.758,25.758,0,0,1,8.726-4.385,41.184,41.184,0,0,1,10.158-1.413c3.491-.11,6.978.09,10.465.226.574.022,1.147.093,1.72.142a6.5,6.5,0,0,0-.191,1.98,1.858,1.858,0,0,0,.245,2.537,4.123,4.123,0,0,0,2.338,1.1c.528.118,1.074.151,1.61.236a19.422,19.422,0,0,0,3.418.324,28.774,28.774,0,0,0,3.8-.142,14.855,14.855,0,0,0,4.651-1.426,2,2,0,0,1,.854-.286c.478.075.874-.2,1.312-.3,2.591-.591,5.12-1.426,7.721-1.974a33.7,33.7,0,0,1,6.338-.976,1,1,0,0,0,.36-.042,2.758,2.758,0,0,1,1.167-.131,28.618,28.618,0,0,1,3.078.14c.926.12,1.852.216,2.773.387a26.9,26.9,0,0,1,5.952,1.892,32.035,32.035,0,0,1,3.471,1.8,28.14,28.14,0,0,1,4.616,3.353,35.923,35.923,0,0,1,4.97,5.3,30.152,30.152,0,0,1,2.431,3.72c.728,1.4,1.447,2.8,2.069,4.251a42.593,42.593,0,0,1,2.023,6.108,26.1,26.1,0,0,1,.595,2.831,29.572,29.572,0,0,1,.523,4.032.69.69,0,0,0,.032.27,3.6,3.6,0,0,1,.143,1.348,12.223,12.223,0,0,0,.149,2.442,3.333,3.333,0,0,1-.017,1.447,5.305,5.305,0,0,0-.123,1.532,18,18,0,0,1-.23,3.436c-.129,1.072-.283,2.148-.474,3.217a43.418,43.418,0,0,1-1.271,5.278,42.805,42.805,0,0,1-1.724,4.587,40.668,40.668,0,0,1-2.036,3.957,44.669,44.669,0,0,1-2.86,4.308,43.556,43.556,0,0,1-4.385,5.194,6.987,6.987,0,0,0-1.019,1.157,2.5,2.5,0,0,1-.7.709,12.128,12.128,0,0,0-1.613,1.465c-.308.292-.587.618-.911.89-.971.816-1.95,1.624-2.942,2.413-.922.734-1.835,1.484-2.806,2.148-1.423.975-2.859,1.93-4.321,2.848-1.722,1.08-3.508,2.04-5.309,2.97-1.182.61-2.424,1.1-3.636,1.656-1.517.69-3.081,1.259-4.648,1.819-1.282.458-2.6.817-3.9,1.191a65.253,65.253,0,0,1-6.7,1.552c-.861.151-1.722.3-2.585.437-.714.11-1.429.233-2.149.281a17.851,17.851,0,0,1-2.8.205.587.587,0,0,0-.267.046,2.411,2.411,0,0,1-.986.122h-6.83a1.812,1.812,0,0,1-.543-.02,20.158,20.158,0,0,0-2.97-.3c-1.065-.182-2.137-.367-3.212-.5A10.092,10.092,0,0,0,539.645,318.375Zm51.289-52.636a20.163,20.163,0,0,0-.176-3.8.832.832,0,0,1,0-.273,13.917,13.917,0,0,0-.226-2.616,27.921,27.921,0,0,0-.494-2.755,38.779,38.779,0,0,0-1.207-4.829,36.117,36.117,0,0,0-2.6-5.9,18.631,18.631,0,0,0-1.043-1.7c-.782-1.154-1.79-2.126-2.652-3.216a.869.869,0,0,0-.28-.228,3.317,3.317,0,0,1-.759-.647,6.839,6.839,0,0,0-.6-.561,20.129,20.129,0,0,0-4.848-2.823,20.531,20.531,0,0,0-7.239-1.473c-1,0-2,0-3,0a2.307,2.307,0,0,0-.723.04,4.173,4.173,0,0,1-1.349.141,2.068,2.068,0,0,0-.633.036,4.357,4.357,0,0,1-1.439.147,1.71,1.71,0,0,0-.543.031,4.974,4.974,0,0,1-1.712.148c-.941.008-1.882,0-2.823,0a10.241,10.241,0,0,1-2.255-.182,12,12,0,0,1-4.167-1.726,11.627,11.627,0,0,1-2.716-2.778,6.312,6.312,0,0,0-5.065-2.587,14.622,14.622,0,0,0-3.984.158,19.18,19.18,0,0,0-3.143.345,28.2,28.2,0,0,0-5,1.234,22.8,22.8,0,0,0-3.189,1.309c-.785.4-1.556.815-2.321,1.247a29.147,29.147,0,0,0-3.288,2.255,28.034,28.034,0,0,0-3.173,2.991c-.478.5-.886,1.067-1.323,1.607-.82,1.013-1.487,2.135-2.26,3.178a31.943,31.943,0,0,0-2.347,3.878,34.869,34.869,0,0,0-1.752,4.087,43.662,43.662,0,0,0-1.359,4.324c-.213.785-.328,1.6-.5,2.391a28.022,28.022,0,0,0-.686,4.554,1.057,1.057,0,0,1-.046.359,3.235,3.235,0,0,0-.132,1.258,6.342,6.342,0,0,1-.044,1.361,7.3,7.3,0,0,0-.137,1.714c-.006.577.025,1.156-.007,1.731-.068,1.246.3,2.466.2,3.713a.831.831,0,0,0,.073.353,2.218,2.218,0,0,1,.1.808,4.981,4.981,0,0,0,.029.636c.1.624.25,1.242.321,1.869a22.876,22.876,0,0,0,.49,2.575,37.326,37.326,0,0,0,1.713,5.541,37.3,37.3,0,0,0,5.562,9.428c.636.726,1.2,1.519,1.891,2.2.974.953,1.914,1.936,2.961,2.82,1.11.937,2.242,1.838,3.424,2.679a47.258,47.258,0,0,0,6.589,3.834,44.079,44.079,0,0,0,4.531,1.868,47.5,47.5,0,0,0,6.46,1.786,21.7,21.7,0,0,0,2.223.407,9.967,9.967,0,0,0,1.977.218c1,.3,2.054.061,3.052.343a42.506,42.506,0,0,0,5.445-.156c.737-.127,1.5-.063,2.256-.17.623-.088,1.269-.141,1.878-.27,1.473-.311,2.959-.561,4.411-1a41.4,41.4,0,0,0,5.208-1.862,37.3,37.3,0,0,0,5.34-2.915,33.261,33.261,0,0,0,5.4-4.409c.763-.779,1.527-1.552,2.233-2.388a30.5,30.5,0,0,0,2.5-3.335,38.81,38.81,0,0,0,2.5-4.525,41.81,41.81,0,0,0,2.439-6.639,53.25,53.25,0,0,0,1.537-7.713c.062-.539.066-1.093.18-1.615a10.379,10.379,0,0,0,.156-2.077,1.342,1.342,0,0,1,.035-.451,3.835,3.835,0,0,0,.143-1.439C590.938,267.531,590.934,266.771,590.934,265.739Z" fill="#9a1a02"/><path d="M420,284.669a3.92,3.92,0,0,1-.3-.334,55.351,55.351,0,0,1-8.671-18.611,47.076,47.076,0,0,1-1.391-9.62,55.183,55.183,0,0,1,.275-8.272,61.332,61.332,0,0,1,3.789-15.416,59.16,59.16,0,0,1,10.453-17.593,45.629,45.629,0,0,1,13.079-10.6,36.375,36.375,0,0,1,9.781-3.6,25.954,25.954,0,0,1,14.752,1.228,42.74,42.74,0,0,1,7.518,3.849c2.777,1.746,5.418,3.686,8.037,5.655a18.515,18.515,0,0,1,2.145,1.67,2.7,2.7,0,0,1-.649.742.92.92,0,0,0-.289.728,7.1,7.1,0,0,0-.674.259,1.814,1.814,0,0,0-.915,1.735,3.579,3.579,0,0,0,1,2.088c.9.85,1.755,1.743,2.706,2.547a23.823,23.823,0,0,0,5.127,3.385,13.835,13.835,0,0,0,5.139,1.321.441.441,0,0,0,.351.361c1.2.411,2.4.842,3.6,1.257.8.277,1.619.506,2.406.815,1.688.663,3.384,1.305,5.05,2.027a32.347,32.347,0,0,1,4.168,2.2,21.947,21.947,0,0,1,2.662,1.879.8.8,0,0,1-.212.487c-.53.659-1.092,1.3-1.564,2a35.127,35.127,0,0,0-3.7,6.647c-.457,1.151-.93,2.3-1.358,3.459a42.16,42.16,0,0,0-1.346,4.607c-.306,1.258-.589,2.521-.774,3.807-.12.833-.279,1.66-.383,2.5-.111.895-.207,1.795-.347,2.682a22.619,22.619,0,0,0-.168,2.62.746.746,0,0,1-.054.265,2.643,2.643,0,0,0-.115,1.077c0,1.911-.009,3.822,0,5.733a7.439,7.439,0,0,0,.162,2.346,1.178,1.178,0,0,1,.014.452,18.056,18.056,0,0,0,.231,2.614,25.743,25.743,0,0,0,.507,3.115c.245,1.271.456,2.555.8,3.8a52.54,52.54,0,0,0,1.724,5.628c.531,1.318,1.033,2.647,1.658,3.925a7.029,7.029,0,0,1-1.637,1.55,37.282,37.282,0,0,1-5.349,3.567A50.2,50.2,0,0,1,489.7,300.6a63.966,63.966,0,0,1-8.841,2.3c-.831.151-1.661.282-2.5.394a18.932,18.932,0,0,1-2.687.322,1.023,1.023,0,0,0-.36.027,4.711,4.711,0,0,1-1.619.154,1.989,1.989,0,0,0-.631.044,3.741,3.741,0,0,1-1.349.133c-1.941,0-3.882.011-5.823,0a7.8,7.8,0,0,1-2.436-.163.88.88,0,0,0-.362-.011,12.758,12.758,0,0,1-2.8-.23c-1.131-.125-2.267-.281-3.4-.474-1.754-.3-3.492-.663-5.22-1.073-1.321-.313-2.618-.724-3.925-1.094-1.488-.421-2.919-.988-4.366-1.514-1.249-.454-2.479-.965-3.7-1.495-1.137-.5-2.263-1.023-3.368-1.588-1.05-.536-2.055-1.158-3.1-1.706-1.127-.593-2.186-1.3-3.255-1.979-.965-.618-1.895-1.3-2.814-1.982a42.6,42.6,0,0,1-4.877-4.047c-.4-.406-.87-.748-1.311-1.114a.612.612,0,0,0-.434-.1.119.119,0,0,1-.109-.157c-.008-.178-.028-.345-.264-.352l.04.026A.247.247,0,0,0,420,284.669Zm37.2,6a37.719,37.719,0,0,0,3.9-.148c.944-.164,1.911-.253,2.861-.411a27.8,27.8,0,0,0,4.55-1.2c.969-.335,1.935-.691,2.882-1.1a34.573,34.573,0,0,0,4.342-2.272,32.3,32.3,0,0,0,3.149-2.147c1.064-.845,2.182-1.634,3.171-2.56,1.057-.989,2.1-1.994,3.107-3.044,1.129-1.183,2.251-2.366,3.273-3.647.98-1.229,1.953-2.459,2.844-3.758a50.846,50.846,0,0,0,4.2-7.216c.115-.247.24-.49.365-.733a26.562,26.562,0,0,0,1.388-3.355,31.133,31.133,0,0,0,1.445-5.052,17.061,17.061,0,0,0,.453-3.221,1.7,1.7,0,0,1,.074-.536,2.576,2.576,0,0,0,.1-.717,25.137,25.137,0,0,0-.367-5.146,20,20,0,0,0-1.424-4.673,20.264,20.264,0,0,0-3.442-5.206,20.867,20.867,0,0,0-3.7-3.2,67.253,67.253,0,0,0-5.954-3.484,40.162,40.162,0,0,1-3.65-2.207,14.141,14.141,0,0,1-3.864-3.921,10.334,10.334,0,0,1-1.282-3.468c-.2-.949-.145-1.922-.335-2.874a6.435,6.435,0,0,0-.46-1.555,8.3,8.3,0,0,0-2.737-2.971,22.573,22.573,0,0,0-2.684-1.694c-1.251-.681-2.525-1.33-3.829-1.9a28.681,28.681,0,0,0-4.124-1.39,20.777,20.777,0,0,0-4.8-.833,1.355,1.355,0,0,1-.446-.067,2.448,2.448,0,0,0-.989-.1,21.386,21.386,0,0,0-3.715.155c-.553.115-1.135.083-1.707.173a32.751,32.751,0,0,0-4.575,1.086c-.987.306-1.907.776-2.886,1.091a22.662,22.662,0,0,0-2.851,1.176,29.685,29.685,0,0,0-2.891,1.532c-1.1.689-2.2,1.389-3.236,2.173-.675.511-1.347,1.022-1.987,1.58-.935.814-1.908,1.583-2.783,2.464-.747.752-1.466,1.528-2.174,2.318-.566.631-1.113,1.28-1.658,1.925-.8.945-1.533,1.948-2.236,2.967a55.58,55.58,0,0,0-3.8,6.3c-.343.674-.626,1.378-.953,2.061a31.521,31.521,0,0,0-1.2,2.942,31.037,31.037,0,0,0-1.312,4.617,24.784,24.784,0,0,0-.66,4.468,1.364,1.364,0,0,1-.069.446,2.058,2.058,0,0,0-.1.807,49.158,49.158,0,0,0,.144,5.174c.142.98.241,1.972.375,2.957a35.116,35.116,0,0,0,1.313,5.638,44.265,44.265,0,0,0,3.383,7.929c.517.958,1.086,1.89,1.67,2.808a44.991,44.991,0,0,0,3.487,4.749,47.394,47.394,0,0,0,3.23,3.562,19.462,19.462,0,0,0,1.431,1.4c.924.731,1.811,1.507,2.728,2.246a40.492,40.492,0,0,0,5.633,3.8,41.954,41.954,0,0,0,4.987,2.425,40.617,40.617,0,0,0,4.989,1.669,37.945,37.945,0,0,0,4.254.855,25.564,25.564,0,0,0,4.057.326C456.474,290.662,456.838,290.67,457.2,290.67Z" fill="#901a03"/><path d="M539.645,318.375a10.092,10.092,0,0,1,1.879.25c1.075.137,2.147.322,3.212.5a20.158,20.158,0,0,1,2.97.3,1.812,1.812,0,0,0,.543.02h6.83a2.411,2.411,0,0,0,.986-.122.587.587,0,0,1,.267-.046,17.851,17.851,0,0,0,2.8-.205c.72-.048,1.435-.171,2.149-.281.863-.134,1.724-.286,2.585-.437a65.253,65.253,0,0,0,6.7-1.552c1.308-.374,2.621-.733,3.9-1.191,1.567-.56,3.131-1.129,4.648-1.819,1.212-.552,2.454-1.046,3.636-1.656,1.8-.93,3.587-1.89,5.309-2.97,1.462-.918,2.9-1.873,4.321-2.848.971-.664,1.884-1.414,2.806-2.148.992-.789,1.971-1.6,2.942-2.413.324-.272.6-.6.911-.89a12.128,12.128,0,0,1,1.613-1.465,2.5,2.5,0,0,0,.7-.709,6.987,6.987,0,0,1,1.019-1.157,43.556,43.556,0,0,0,4.385-5.194,44.669,44.669,0,0,0,2.86-4.308,40.668,40.668,0,0,0,2.036-3.957,42.805,42.805,0,0,0,1.724-4.587,43.418,43.418,0,0,0,1.271-5.278c.191-1.069.345-2.145.474-3.217a18,18,0,0,0,.23-3.436,5.305,5.305,0,0,1,.123-1.532,3.333,3.333,0,0,0,.017-1.447,12.223,12.223,0,0,1-.149-2.442,3.6,3.6,0,0,0-.143-1.348.69.69,0,0,1-.032-.27,29.572,29.572,0,0,0-.523-4.032,26.1,26.1,0,0,0-.595-2.831,42.593,42.593,0,0,0-2.023-6.108c-.622-1.453-1.341-2.854-2.069-4.251a30.152,30.152,0,0,0-2.431-3.72,35.923,35.923,0,0,0-4.97-5.3,28.14,28.14,0,0,0-4.616-3.353,32.035,32.035,0,0,0-3.471-1.8,26.9,26.9,0,0,0-5.952-1.892c-.921-.171-1.847-.267-2.773-.387a28.618,28.618,0,0,0-3.078-.14,2.758,2.758,0,0,0-1.167.131,1,1,0,0,1-.36.042,33.7,33.7,0,0,0-6.338.976c-2.6.548-5.13,1.383-7.721,1.974-.438.1-.834.378-1.312.3.062-.368.357-.524.622-.73a4.049,4.049,0,0,0,1.448-1.7.8.8,0,0,0,.1-.427c-.1-.365-.155-.747-.556-.985a3.828,3.828,0,0,0-1.244-.5c-.622-.12-1.261-.125-1.875-.229a11.333,11.333,0,0,0-2.158-.112.716.716,0,0,1-.34-.516c4-.7,7.947-1.686,11.884-2.69,2.321-.591,4.637-1.2,6.993-1.643a36.752,36.752,0,0,1,9.511-.622,22.521,22.521,0,0,1,6.291,1.371,34.812,34.812,0,0,1,16.919,13.395,45.6,45.6,0,0,1,6.339,14.322,58.664,58.664,0,0,1,1.7,10.313,64.393,64.393,0,0,1,.113,8.1,63.221,63.221,0,0,1-5.643,23.661,48.81,48.81,0,0,1-12.93,16.833,59.084,59.084,0,0,1-20.618,11.279,67.228,67.228,0,0,1-22.978,3.062,64.16,64.16,0,0,1-18.877-3.594A2.081,2.081,0,0,1,539.645,318.375Z" fill="#720f02"/><path d="M420.538,285.4a.612.612,0,0,1,.434.1c.441.366.909.708,1.311,1.114a42.6,42.6,0,0,0,4.877,4.047c.919.686,1.849,1.364,2.814,1.982,1.069.683,2.128,1.386,3.255,1.979,1.044.548,2.049,1.17,3.1,1.706,1.105.565,2.231,1.092,3.368,1.588,1.219.53,2.449,1.041,3.7,1.495,1.447.526,2.878,1.093,4.366,1.514,1.307.37,2.6.781,3.925,1.094,1.728.41,3.466.773,5.22,1.073,1.128.193,2.264.349,3.4.474a12.758,12.758,0,0,0,2.8.23.88.88,0,0,1,.362.011,7.8,7.8,0,0,0,2.436.163c1.941.012,3.882,0,5.823,0a3.741,3.741,0,0,0,1.349-.133,1.989,1.989,0,0,1,.631-.044,4.711,4.711,0,0,0,1.619-.154,1.023,1.023,0,0,1,.36-.027,18.932,18.932,0,0,0,2.687-.322c.837-.112,1.667-.243,2.5-.394a63.966,63.966,0,0,0,8.841-2.3,50.2,50.2,0,0,0,7.542-3.353,37.282,37.282,0,0,0,5.349-3.567,7.029,7.029,0,0,0,1.637-1.55h.18a1.76,1.76,0,0,0,.242,1.035c.436.787.851,1.586,1.293,2.37.323.573.684,1.126,1.013,1.7a.661.661,0,0,0,.571.374,2.257,2.257,0,0,1-.227.275,56.256,56.256,0,0,1-13.88,9.263,48.98,48.98,0,0,1-11.607,3.606,54.579,54.579,0,0,1-12.688.827,60.615,60.615,0,0,1-15.793-2.908,67.07,67.07,0,0,1-25.9-15.413,61.269,61.269,0,0,1-6.494-7.25C420.8,285.809,420.672,285.6,420.538,285.4Z" fill="#6b0f02"/><path d="M484.7,216.477a6.469,6.469,0,0,0,1.451-.929,40.992,40.992,0,0,0,6.515-6.2,66.809,66.809,0,0,0,7.736-11.113,70.617,70.617,0,0,0,4.023-8.758A113.367,113.367,0,0,0,508.393,177c1.276-4.87,2.312-9.795,3.311-14.727,1.161-5.734,2.273-11.479,3.644-17.168a119.575,119.575,0,0,1,3.957-13.429,63.945,63.945,0,0,1,6.658-13.42c.875-1.315,1.836-2.566,2.811-3.806a2.314,2.314,0,0,0,.968-.067,1.807,1.807,0,0,1,.88-.04,5.054,5.054,0,0,1,.454.676,2.028,2.028,0,0,1,.134,1.573,7.892,7.892,0,0,1-1.381,2.435c-1.1,1.409-2.2,2.809-3.2,4.291a64.545,64.545,0,0,0-3.982,6.613A54.691,54.691,0,0,0,520,135.912c-.8,2.159-1.531,4.338-2.128,6.562q-1.092,4.072-1.932,8.205c-.277,1.36-.528,2.727-.771,4.094-.217,1.218-.388,2.445-.611,3.662-.267,1.454-.557,2.905-.856,4.353-.392,1.892-.781,3.786-1.212,5.669-.425,1.856-.872,3.708-1.365,5.547-.57,2.132-1.159,4.262-1.817,6.368-.766,2.457-1.592,4.9-2.533,7.294-1.019,2.595-2.127,5.151-3.344,7.659-.768,1.582-1.631,3.113-2.485,4.65s-1.792,3.021-2.73,4.506c-1.116,1.767-2.338,3.463-3.6,5.128-.8,1.059-1.647,2.092-2.529,3.088a36.831,36.831,0,0,0-2.873,3.51c-.891,1.3-1.748,2.648-1.563,4.352a1.008,1.008,0,0,1-.3.735,1.636,1.636,0,0,1-1.447.623,4.419,4.419,0,0,1-2.152-.636,8.053,8.053,0,0,1-1.616-1.458,7.042,7.042,0,0,1-1.409-2.2,3.914,3.914,0,0,1,.6-.187c.505-.076,1.013-.13,1.521-.183a2.4,2.4,0,0,0,1.19-.349A1.042,1.042,0,0,0,484.7,216.477Z" fill="#9ccb3d"/><path d="M561.766,224.95a.716.716,0,0,0,.34.516,2.308,2.308,0,0,0,.586.8,5.675,5.675,0,0,1,.959,1.426,1.441,1.441,0,0,1-.325,1.745,3.5,3.5,0,0,1-.654.485,7.278,7.278,0,0,1-3.362,1,40.261,40.261,0,0,1-4.269-.04,7.292,7.292,0,0,1-1.254-.19,2.476,2.476,0,0,1-.975-.471,1.026,1.026,0,0,1-.419-.679.725.725,0,0,1,.262-.644.679.679,0,0,0,.121.134,11.546,11.546,0,0,0,2.869,1.122,1.653,1.653,0,0,0,.452.033c.516,0,1.033.019,1.548,0a3.032,3.032,0,0,0,2.087-.978,1.437,1.437,0,0,0,.111-1.973,4.146,4.146,0,0,1-.731-1.552,12.81,12.81,0,0,1-.192-4.16c.077-1.02.277-2.032.328-3.059.006-.121.026-.241.044-.361a21.979,21.979,0,0,0,.315-3.061,6.563,6.563,0,0,1,.043-1.362,8.4,8.4,0,0,0,.125-1.808c.006-1.488,0-2.975,0-4.463a2.559,2.559,0,0,0-.037-.724,5.256,5.256,0,0,1-.128-1.444,10.05,10.05,0,0,0-.063-1.816c-.2-.926-.072-1.869-.282-2.795-.166-.731-.132-1.5-.238-2.251-.141-.985-.362-1.959-.493-2.945-.273-2.07-.716-4.107-1.185-6.136-.53-2.3-1.113-4.585-1.83-6.835-.322-1.01-.672-2.012-.948-3.034-.491-1.817-1.186-3.563-1.812-5.331-.747-2.111-1.612-4.181-2.429-6.267-.9-2.284-1.862-4.539-2.873-6.774-.313-.69-.626-1.38-.929-2.074q-.8-1.833-1.583-3.67c-.455-1.058-.928-2.107-1.355-3.176-.549-1.378-1.056-2.773-1.589-4.157a63.57,63.57,0,0,1-2.049-6.3,54.439,54.439,0,0,1-1.7-8.34,32.745,32.745,0,0,1-.337-3.879A1.557,1.557,0,0,0,537.9,129a7.23,7.23,0,0,1-.144-2.079c-.009-1.093,0-2.186,0-3.278,0-.514.078-1.026.113-1.534.076-1.116.135-2.234.235-3.348a6.447,6.447,0,0,0-.178-1.164,2.245,2.245,0,0,0-1.294-1.945,3.141,3.141,0,0,1-.372-.25.642.642,0,0,1,.854-.3,5.212,5.212,0,0,1,1.818.788,10.424,10.424,0,0,0,.978.656,3.841,3.841,0,0,0,2.037.679,30.89,30.89,0,0,0-1.37,4.041,28.17,28.17,0,0,0-.671,4.4,40.258,40.258,0,0,0,.844,10.851,109.9,109.9,0,0,0,4.553,15.608c1.78,4.967,3.826,9.83,5.827,14.709,1.841,4.487,3.677,8.976,5.255,13.565a83.306,83.306,0,0,1,3.121,11.389c.457,2.384.8,4.782,1.047,7.2a102.217,102.217,0,0,1,.215,14c-.1,2.851-.116,5.7-.024,8.554a6.866,6.866,0,0,0,.47,2.49A1.947,1.947,0,0,0,561.766,224.95Z" fill="#62a412"/><path d="M528.642,114.293c-.057-.064-.152-.121-.164-.193a1.631,1.631,0,0,1,.5-1.495c1.165-1.11,2.219-2.318,3.3-3.508a4.39,4.39,0,0,1,2.907-1.348,1.9,1.9,0,0,0,1.058-.436,10.938,10.938,0,0,1,5.419-2.393,5.636,5.636,0,0,1,4.222,1,.519.519,0,0,1,.1.146c-.191.095-.2.274-.231.457a14.1,14.1,0,0,1-.39,2.041,18.317,18.317,0,0,1-1.45,3.025,7.939,7.939,0,0,1-1.737,2.2,2.922,2.922,0,0,1-3.589.486c-.232-.141-.482-.254-.726-.374-.936-.46-1.02-.463-1.716.294-.47.51-.883,1.072-1.329,1.6a2.88,2.88,0,0,1-.45.44.266.266,0,0,1-.4-.074,1.179,1.179,0,0,1-.194-.406,8.407,8.407,0,0,0-.981-2.028.938.938,0,0,0-1.172-.438c-.873.241-1.742.5-2.611.749A.538.538,0,0,0,528.642,114.293Z" fill="#a47f5f"/><path d="M528.642,114.293a.538.538,0,0,1,.36-.253c.869-.253,1.738-.508,2.611-.749a.938.938,0,0,1,1.172.438,8.407,8.407,0,0,1,.981,2.028,1.179,1.179,0,0,0,.194.406.266.266,0,0,0,.4.074,2.88,2.88,0,0,0,.45-.44c.446-.532.859-1.094,1.329-1.6.7-.757.78-.754,1.716-.294.244.12.494.233.726.374a2.922,2.922,0,0,0,3.589-.486,7.939,7.939,0,0,0,1.737-2.2,18.317,18.317,0,0,0,1.45-3.025,14.1,14.1,0,0,0,.39-2.041c.033-.183.04-.362.231-.457A4.22,4.22,0,0,1,547.326,110a5.368,5.368,0,0,1-1.069,2.662c-.661.865-1.275,1.762-1.865,2.676-.049.076-.1.148-.156.222a2.73,2.73,0,0,1-4.329.983,10.424,10.424,0,0,1-.978-.656,5.212,5.212,0,0,0-1.818-.788.643.643,0,0,0-.854.3,2.071,2.071,0,0,0-.919.529,1.973,1.973,0,0,0-.857,1.763c0,.389-.024.778-.037,1.167-.458-.03-.673-.38-.869-.711a10.441,10.441,0,0,1-.613-1.306,5.487,5.487,0,0,0-1.283-2.154,1.1,1.1,0,0,0-1.057-.346,1.807,1.807,0,0,0-.88.04,2.314,2.314,0,0,1-.968.067Z" fill="#6b4326"/><path d="M507.528,297.6a.661.661,0,0,1-.571-.374c-.329-.571-.69-1.124-1.013-1.7-.442-.784-.857-1.583-1.293-2.37a1.76,1.76,0,0,1-.242-1.035,8.823,8.823,0,0,0,1.379-1.3,15.863,15.863,0,0,0,2.089-2.245.615.615,0,0,1,.54-.283c.373.85.736,1.7,1.122,2.549.3.655.629,1.3.943,1.944.222.459.439.92.659,1.379-.95.933-1.9,1.87-2.853,2.8C508.051,297.2,507.782,297.391,507.528,297.6Z" fill="#550a02"/><path d="M484.7,216.477a1.041,1.041,0,0,1-.659.43,1.2,1.2,0,0,0-.59-.4c-1.008-.48-2.026-.938-3.025-1.435a6.058,6.058,0,0,0-1.889-.578.92.92,0,0,1,.289-.728,2.7,2.7,0,0,0,.649-.742,3.046,3.046,0,0,1,.393.216,50.954,50.954,0,0,0,4.535,3.029C484.5,216.332,484.6,216.408,484.7,216.477Z" fill="#6b0f02"/><path d="M590.934,265.739c0,1.032,0,1.792,0,2.551a3.835,3.835,0,0,1-.143,1.439,1.342,1.342,0,0,0-.035.451,10.379,10.379,0,0,1-.156,2.077c-.114.522-.118,1.076-.18,1.615a53.25,53.25,0,0,1-1.537,7.713,41.81,41.81,0,0,1-2.439,6.639,38.81,38.81,0,0,1-2.5,4.525,30.5,30.5,0,0,1-2.5,3.335c-.706.836-1.47,1.609-2.233,2.388a33.261,33.261,0,0,1-5.4,4.409,37.3,37.3,0,0,1-5.34,2.915,41.4,41.4,0,0,1-5.208,1.862c-1.452.434-2.938.684-4.411,1-.609.129-1.255.182-1.878.27-.756.107-1.519.043-2.256.17a42.506,42.506,0,0,1-5.445.156c-1-.282-2.055-.041-3.052-.343a9.967,9.967,0,0,1-1.977-.218,21.7,21.7,0,0,1-2.223-.407,47.5,47.5,0,0,1-6.46-1.786,44.079,44.079,0,0,1-4.531-1.868,47.258,47.258,0,0,1-6.589-3.834c-1.182-.841-2.314-1.742-3.424-2.679-1.047-.884-1.987-1.867-2.961-2.82-.692-.678-1.255-1.471-1.891-2.2a37.3,37.3,0,0,1-5.562-9.428,37.326,37.326,0,0,1-1.713-5.541,22.876,22.876,0,0,1-.49-2.575c-.071-.627-.221-1.245-.321-1.869a4.981,4.981,0,0,1-.029-.636,2.218,2.218,0,0,0-.1-.808.831.831,0,0,1-.073-.353c.1-1.247-.267-2.467-.2-3.713.032-.575,0-1.154.007-1.731a7.3,7.3,0,0,1,.137-1.714,6.342,6.342,0,0,0,.044-1.361A3.235,3.235,0,0,1,508,262.11a1.057,1.057,0,0,0,.046-.359,28.022,28.022,0,0,1,.686-4.554c.172-.8.287-1.606.5-2.391a43.662,43.662,0,0,1,1.359-4.324,34.869,34.869,0,0,1,1.752-4.087,31.943,31.943,0,0,1,2.347-3.878c.773-1.043,1.44-2.165,2.26-3.178.437-.54.845-1.107,1.323-1.607a28.034,28.034,0,0,1,3.173-2.991,29.147,29.147,0,0,1,3.288-2.255c.765-.432,1.536-.851,2.321-1.247a22.8,22.8,0,0,1,3.189-1.309,28.2,28.2,0,0,1,5-1.234,19.18,19.18,0,0,1,3.143-.345,14.622,14.622,0,0,1,3.984-.158,6.312,6.312,0,0,1,5.065,2.587,11.627,11.627,0,0,0,2.716,2.778,12,12,0,0,0,4.167,1.726,10.241,10.241,0,0,0,2.255.182c.941-.006,1.882,0,2.823,0a4.974,4.974,0,0,0,1.712-.148,1.71,1.71,0,0,1,.543-.031,4.357,4.357,0,0,0,1.439-.147,2.068,2.068,0,0,1,.633-.036,4.173,4.173,0,0,0,1.349-.141,2.307,2.307,0,0,1,.723-.04c1,0,2,0,3,0a20.531,20.531,0,0,1,7.239,1.473,20.129,20.129,0,0,1,4.848,2.823,6.839,6.839,0,0,1,.6.561,3.317,3.317,0,0,0,.759.647.869.869,0,0,1,.28.228c.862,1.09,1.87,2.062,2.652,3.216a18.631,18.631,0,0,1,1.043,1.7,36.117,36.117,0,0,1,2.6,5.9,38.779,38.779,0,0,1,1.207,4.829,27.921,27.921,0,0,1,.494,2.755,13.917,13.917,0,0,1,.226,2.616.832.832,0,0,0,0,.273A20.163,20.163,0,0,1,590.934,265.739Zm-40.283-6.416a12.319,12.319,0,0,0,2.807-.159,1.565,1.565,0,0,1,.363-.01,22.285,22.285,0,0,0,2.715-.153c.892-.138,1.791-.239,2.685-.385a25.292,25.292,0,0,0,4.9-1.318,15.035,15.035,0,0,0,2.562-1.164,28.6,28.6,0,0,0,3.22-2.194,11.011,11.011,0,0,0,3.228-4.208,3.42,3.42,0,0,0,.311-1.771,2.017,2.017,0,0,0-1.091-1.671,2.764,2.764,0,0,0-1.946-.179,19.761,19.761,0,0,0-3.548,1.106c-.721.312-1.461.581-2.2.853a31.074,31.074,0,0,1-4.794,1.363,17.18,17.18,0,0,1-3.864.435c-.788-.028-1.579-.021-2.368,0a11.017,11.017,0,0,1-2.24-.293,15.684,15.684,0,0,1-4.329-1.6,10.031,10.031,0,0,1-3.557-3.154c-.907-1.256-1.632-2.621-2.418-3.951a16.566,16.566,0,0,0-1.833-2.7,9.615,9.615,0,0,0-3.827-2.686,10.665,10.665,0,0,0-3.165-.724,14.387,14.387,0,0,0-3.077.126,14.9,14.9,0,0,0-5.392,2.059,14.019,14.019,0,0,0-2.19,1.613,36.43,36.43,0,0,0-3.78,4.408,31.177,31.177,0,0,0-3.356,5.39c-.506,1-.948,2.032-1.352,3.076a31.63,31.63,0,0,0-1.6,5.481c-.153.8-.292,1.6-.423,2.406a17.526,17.526,0,0,1-.3,2.423,39.44,39.44,0,0,0,.332,6.7,32.734,32.734,0,0,0,1.158,4.933,21.928,21.928,0,0,0,2.4,5.184,8.651,8.651,0,0,0,2.36,2.605,5.005,5.005,0,0,0,2.152.925,5.316,5.316,0,0,0,4.187-1.384,12.166,12.166,0,0,0,2.741-3.593,62.25,62.25,0,0,0,3.056-7.088c.427-1.1.83-2.214,1.326-3.283a15.087,15.087,0,0,1,3.4-4.787,9.3,9.3,0,0,1,3.149-1.931,14.36,14.36,0,0,1,5.063-.876q2.458,0,4.917.01a3.041,3.041,0,0,1,.812.062,3.88,3.88,0,0,0,1.081.1C549.439,259.325,549.955,259.323,550.651,259.323Zm30.808-13.531a2.171,2.171,0,0,0-.228-1.1,2.852,2.852,0,0,0-2.159-1.89,2.28,2.28,0,0,0-2.73,1.29,4.23,4.23,0,0,0-.5,2.537c.02.268.126.529.156.8a2.485,2.485,0,0,0,.5,1.156,1.919,1.919,0,0,0,2.551.709,4.2,4.2,0,0,0,1.833-1.577A3.13,3.13,0,0,0,581.459,245.792Z" fill="#b62f05"/><path d="M508.417,288.3a.615.615,0,0,0-.54.283,15.863,15.863,0,0,1-2.089,2.245,8.823,8.823,0,0,1-1.379,1.3h-.18c-.625-1.278-1.127-2.607-1.658-3.925a52.54,52.54,0,0,1-1.724-5.628c-.346-1.244-.557-2.528-.8-3.8a25.743,25.743,0,0,1-.507-3.115,18.056,18.056,0,0,1-.231-2.614,1.178,1.178,0,0,0-.014-.452,7.439,7.439,0,0,1-.162-2.346c-.011-1.911,0-3.822,0-5.733a2.643,2.643,0,0,1,.115-1.077.746.746,0,0,0,.054-.265,22.619,22.619,0,0,1,.168-2.62c.14-.887.236-1.787.347-2.682.1-.839.263-1.666.383-2.5.185-1.286.468-2.549.774-3.807a42.16,42.16,0,0,1,1.346-4.607c.428-1.162.9-2.308,1.358-3.459a35.127,35.127,0,0,1,3.7-6.647c.472-.7,1.034-1.336,1.564-2a.8.8,0,0,0,.212-.487l.183,0a2.191,2.191,0,0,0,.686.712,10.867,10.867,0,0,1,2.049,2.044c.063.449-.254.746-.48,1.044a26.922,26.922,0,0,0-2.314,3.788c-.4.75-.782,1.507-1.14,2.276a43.407,43.407,0,0,0-2.465,6.716c-.491,1.777-.8,3.587-1.189,5.383-.146.674-.172,1.374-.251,2.062a4.339,4.339,0,0,1-.088.716,3,3,0,0,0-.094.808,4.5,4.5,0,0,1-.141,1.439,2.311,2.311,0,0,0-.038.723c0,1.638-.008,3.276,0,4.913a5.433,5.433,0,0,0,.155,1.891.765.765,0,0,1,.02.271,28.492,28.492,0,0,0,.334,3.6c.162,1.655.48,3.279.8,4.9.26,1.329.622,2.642,1,3.945.393,1.364.862,2.707,1.284,4.063.243.782.555,1.535.873,2.287A2.384,2.384,0,0,1,508.417,288.3Z" fill="#720e01"/><path d="M552.655,228.891a.725.725,0,0,0-.262.644,1.026,1.026,0,0,0,.419.679,2.476,2.476,0,0,0,.975.471,7.292,7.292,0,0,0,1.254.19,40.261,40.261,0,0,0,4.269.04,7.278,7.278,0,0,0,3.362-1,3.5,3.5,0,0,0,.654-.485,1.441,1.441,0,0,0,.325-1.745,5.675,5.675,0,0,0-.959-1.426,2.308,2.308,0,0,1-.586-.8,11.333,11.333,0,0,1,2.158.112c.614.1,1.253.109,1.875.229a3.828,3.828,0,0,1,1.244.5c.4.238.452.62.556.985a.8.8,0,0,1-.1.427,4.049,4.049,0,0,1-1.448,1.7c-.265.206-.56.362-.622.73a2,2,0,0,0-.854.286,14.855,14.855,0,0,1-4.651,1.426,28.774,28.774,0,0,1-3.8.142,19.422,19.422,0,0,1-3.418-.324c-.536-.085-1.082-.118-1.61-.236a4.123,4.123,0,0,1-2.338-1.1,1.858,1.858,0,0,1-.245-2.537,4.119,4.119,0,0,1,1.816-.751c.5-.085,1.013-.132,1.517-.211.949-.15,1.893-.326,2.839-.492a2.614,2.614,0,0,1-1.014,1.229A6.866,6.866,0,0,0,552.655,228.891Z" fill="#390300"/><path d="M512.067,237.126a10.867,10.867,0,0,0-2.049-2.044,2.191,2.191,0,0,1-.686-.712,3.319,3.319,0,0,0,.739-.655c.633-.595,1.224-1.228,1.92-1.765a18.458,18.458,0,0,1,3-1.964,10.174,10.174,0,0,1,2.2,1.647,1.621,1.621,0,0,1-.77.971,14.408,14.408,0,0,0-2.11,2.1c-.625.736-1.269,1.455-1.846,2.23A.578.578,0,0,1,512.067,237.126Z" fill="#550a02"/><path d="M555.026,226.354c-.946.166-1.89.342-2.839.492-.5.079-1.012.126-1.517.211a4.119,4.119,0,0,0-1.816.751,6.5,6.5,0,0,1,.191-1.98,1.629,1.629,0,0,1,.267-.03c1.98.078,3.959.028,5.937-.026A.674.674,0,0,1,555.026,226.354Z" fill="#720f02"/><path d="M457.2,290.67c-.365,0-.729-.008-1.093,0a25.564,25.564,0,0,1-4.057-.326,37.945,37.945,0,0,1-4.254-.855,40.617,40.617,0,0,1-4.989-1.669,41.954,41.954,0,0,1-4.987-2.425,40.492,40.492,0,0,1-5.633-3.8c-.917-.739-1.8-1.515-2.728-2.246a19.462,19.462,0,0,1-1.431-1.4,47.394,47.394,0,0,1-3.23-3.562,44.991,44.991,0,0,1-3.487-4.749c-.584-.918-1.153-1.85-1.67-2.808a44.265,44.265,0,0,1-3.383-7.929,35.116,35.116,0,0,1-1.313-5.638c-.134-.985-.233-1.977-.375-2.957a49.158,49.158,0,0,1-.144-5.174,2.058,2.058,0,0,1,.1-.807,1.364,1.364,0,0,0,.069-.446,24.784,24.784,0,0,1,.66-4.468,31.037,31.037,0,0,1,1.312-4.617,31.521,31.521,0,0,1,1.2-2.942c.327-.683.61-1.387.953-2.061a55.58,55.58,0,0,1,3.8-6.3c.7-1.019,1.437-2.022,2.236-2.967.545-.645,1.092-1.294,1.658-1.925.708-.79,1.427-1.566,2.174-2.318.875-.881,1.848-1.65,2.783-2.464.64-.558,1.312-1.069,1.987-1.58,1.037-.784,2.133-1.484,3.236-2.173a29.685,29.685,0,0,1,2.891-1.532,22.662,22.662,0,0,1,2.851-1.176c.979-.315,1.9-.785,2.886-1.091a32.751,32.751,0,0,1,4.575-1.086c.572-.09,1.154-.058,1.707-.173a21.386,21.386,0,0,1,3.715-.155,2.448,2.448,0,0,1,.989.1,1.355,1.355,0,0,0,.446.067,20.777,20.777,0,0,1,4.8.833,28.681,28.681,0,0,1,4.124,1.39c1.3.571,2.578,1.22,3.829,1.9a22.573,22.573,0,0,1,2.684,1.694,8.3,8.3,0,0,1,2.737,2.971,6.435,6.435,0,0,1,.46,1.555c.19.952.13,1.925.335,2.874a10.334,10.334,0,0,0,1.282,3.468,14.141,14.141,0,0,0,3.864,3.921,40.162,40.162,0,0,0,3.65,2.207,67.253,67.253,0,0,1,5.954,3.484,20.867,20.867,0,0,1,3.7,3.2,20.264,20.264,0,0,1,3.442,5.206,20,20,0,0,1,1.424,4.673,25.137,25.137,0,0,1,.367,5.146,2.576,2.576,0,0,1-.1.717,1.7,1.7,0,0,0-.074.536,17.061,17.061,0,0,1-.453,3.221,31.133,31.133,0,0,1-1.445,5.052,26.562,26.562,0,0,1-1.388,3.355c-.125.243-.25.486-.365.733a50.846,50.846,0,0,1-4.2,7.216c-.891,1.3-1.864,2.529-2.844,3.758-1.022,1.281-2.144,2.464-3.273,3.647-1,1.05-2.05,2.055-3.107,3.044-.989.926-2.107,1.715-3.171,2.56a32.3,32.3,0,0,1-3.149,2.147,34.573,34.573,0,0,1-4.342,2.272c-.947.412-1.913.768-2.882,1.1a27.8,27.8,0,0,1-4.55,1.2c-.95.158-1.917.247-2.861.411A37.719,37.719,0,0,1,457.2,290.67Zm22.072-42.63a13.958,13.958,0,0,0,2.889-.185,10.7,10.7,0,0,0,4.082-1.67,2.6,2.6,0,0,0,1.238-2.55,1.571,1.571,0,0,0-.616-1.164,8.154,8.154,0,0,0-.925-.575,13.369,13.369,0,0,0-3.622-1.143,44.021,44.021,0,0,1-4.653-1.181,30.214,30.214,0,0,1-4.766-2.013,21.925,21.925,0,0,1-4.291-3.029,14.16,14.16,0,0,1-1.277-1.413,14.554,14.554,0,0,1-2.5-4.189,6.252,6.252,0,0,1-.5-2.474,32.734,32.734,0,0,1,.18-5.172,25.319,25.319,0,0,0-.151-4.08,9.255,9.255,0,0,0-.9-2.747,11.339,11.339,0,0,0-3.4-3.829,14.12,14.12,0,0,0-4.334-2.048,9.934,9.934,0,0,0-3.128-.456c-.667.029-1.336.022-2,0a10.437,10.437,0,0,0-2.33.3c-1.013.2-1.955.645-2.949.906a31.1,31.1,0,0,0-5.489,2.144,29.983,29.983,0,0,0-5.12,3.1,34.942,34.942,0,0,0-4.132,3.542c-.59.61-1.18,1.214-1.718,1.875-.668.821-1.346,1.632-1.957,2.5a29.664,29.664,0,0,0-3.389,6.1c-.314.786-.625,1.578-.865,2.389a21.131,21.131,0,0,0-.857,3.61,16.232,16.232,0,0,0-.266,2.338c.016.546-.01,1.093.006,1.639a6.531,6.531,0,0,0,1.124,3.586,4.12,4.12,0,0,0,3.446,1.869c.394.012.79-.012,1.184.006a6.2,6.2,0,0,0,2.475-.491,25.289,25.289,0,0,0,5.044-2.685c1.764-1.172,3.49-2.4,5.243-3.592a17.58,17.58,0,0,1,4.95-2.443,8.954,8.954,0,0,1,2.85-.462,11.1,11.1,0,0,1,1.635.041,13.751,13.751,0,0,1,4.018,1.385,40.671,40.671,0,0,1,4.56,2.975c1.932,1.408,3.854,2.825,5.884,4.094a46.785,46.785,0,0,0,5.167,2.841,27.641,27.641,0,0,0,4.689,1.695,16.335,16.335,0,0,0,4.925.647C478.846,248.035,478.968,248.04,479.275,248.04Zm12.653,1.264a4.4,4.4,0,0,0,2.629-.834,1.789,1.789,0,0,0,.388-.379,3.065,3.065,0,0,0-.477-4.436,2.048,2.048,0,0,0-1.947-.477,3.537,3.537,0,0,0-1.908,1.315,8.19,8.19,0,0,0-.591.911,3.54,3.54,0,0,0-.551,1.972,1.992,1.992,0,0,0,1.822,1.924A4.636,4.636,0,0,0,491.928,249.3Z" fill="#b62f05"/><path d="M515,229.986a18.458,18.458,0,0,0-3,1.964c-.7.537-1.287,1.17-1.92,1.765a3.319,3.319,0,0,1-.739.655l-.183,0a21.947,21.947,0,0,0-2.662-1.879,32.347,32.347,0,0,0-4.168-2.2c-1.666-.722-3.362-1.364-5.05-2.027-.787-.309-1.605-.538-2.406-.815-1.2-.415-2.394-.846-3.6-1.257a.441.441,0,0,1-.351-.361,13.536,13.536,0,0,0,2.057-.223,2.1,2.1,0,0,0,1.128-.534.964.964,0,0,0,.419-.945,2.714,2.714,0,0,0-.684-1.35,15.546,15.546,0,0,0-3.316-2.614.629.629,0,0,1-.012-.721c4.6,2.058,9.352,3.713,14.083,5.427a50.46,50.46,0,0,1,8.519,3.868A9.9,9.9,0,0,1,515,229.986Z" fill="#6b0f02"/><path d="M490.52,220.164a15.546,15.546,0,0,1,3.316,2.614,2.714,2.714,0,0,1,.684,1.35.964.964,0,0,1-.419.945,2.1,2.1,0,0,1-1.128.534,13.536,13.536,0,0,1-2.057.223,13.835,13.835,0,0,1-5.139-1.321,23.823,23.823,0,0,1-5.127-3.385c-.951-.8-1.806-1.7-2.706-2.547a3.579,3.579,0,0,1-1-2.088,1.814,1.814,0,0,1,.915-1.735,7.1,7.1,0,0,1,.674-.259,6.058,6.058,0,0,1,1.889.578c1,.5,2.017.955,3.025,1.435a1.2,1.2,0,0,1,.59.4,2.4,2.4,0,0,1-1.189.349c-.508.053-1.016.107-1.521.183a3.914,3.914,0,0,0-.6.187.73.73,0,0,0-.589.877,1.923,1.923,0,0,0,.629,1.269,21.274,21.274,0,0,0,3.042,2.436,10.629,10.629,0,0,0,3.41,1.657,4.726,4.726,0,0,0,2.059.149,1.429,1.429,0,0,0,1.282-1.31,5.551,5.551,0,0,0,.021-.816C490.57,221.313,490.542,220.739,490.52,220.164Z" fill="#390300"/><path d="M490.52,220.164c.022.575.05,1.149.066,1.724a5.551,5.551,0,0,1-.021.816,1.429,1.429,0,0,1-1.282,1.31,4.726,4.726,0,0,1-2.059-.149,10.629,10.629,0,0,1-3.41-1.657,21.274,21.274,0,0,1-3.042-2.436,1.923,1.923,0,0,1-.629-1.269.73.73,0,0,1,.589-.877,7.042,7.042,0,0,0,1.409,2.2,8.053,8.053,0,0,0,1.616,1.458,4.419,4.419,0,0,0,2.152.636,1.636,1.636,0,0,0,1.447-.623,1.008,1.008,0,0,0,.3-.735c-.185-1.7.672-3.057,1.563-4.352a36.831,36.831,0,0,1,2.873-3.51c.882-1,1.726-2.029,2.529-3.088,1.262-1.665,2.484-3.361,3.6-5.128.938-1.485,1.876-2.969,2.73-4.506s1.717-3.068,2.485-4.65c1.217-2.508,2.325-5.064,3.344-7.659.941-2.4,1.767-4.837,2.533-7.294.658-2.106,1.247-4.236,1.817-6.368.493-1.839.94-3.691,1.365-5.547.431-1.883.82-3.777,1.212-5.669.3-1.448.589-2.9.856-4.353.223-1.217.394-2.444.611-3.662.243-1.367.494-2.734.771-4.094q.838-4.132,1.932-8.205c.6-2.224,1.33-4.4,2.128-6.562a54.691,54.691,0,0,1,2.644-5.982,64.545,64.545,0,0,1,3.982-6.613c1-1.482,2.105-2.882,3.2-4.291a7.892,7.892,0,0,0,1.381-2.435,2.028,2.028,0,0,0-.134-1.573,5.054,5.054,0,0,0-.454-.676,1.1,1.1,0,0,1,1.057.346,5.487,5.487,0,0,1,1.283,2.154,10.441,10.441,0,0,0,.613,1.306c.2.331.411.681.869.711l.021.507c-.342-.039-.559.2-.806.367a23.36,23.36,0,0,0-5.089,4.649,38.008,38.008,0,0,0-5.041,8.193,80.016,80.016,0,0,0-3.812,10.219c-1.536,4.956-2.757,9.993-3.84,15.065-1.151,5.4-2.27,10.8-3.468,16.186a100.4,100.4,0,0,1-3.97,13.705,75.105,75.105,0,0,1-8.693,16.55c-1.616,2.313-3.282,4.591-4.9,6.905-1.042,1.492-2.036,3.017-3.045,4.532a9.1,9.1,0,0,0-.945,1.761,3.944,3.944,0,0,0-.35,1.945A.629.629,0,0,0,490.52,220.164Z" fill="#62a412"/><path d="M534.465,119.366l-.021-.507c.013-.389.042-.778.037-1.167a1.973,1.973,0,0,1,.857-1.763,2.071,2.071,0,0,1,.919-.529,3.032,3.032,0,0,0,.372.251,2.245,2.245,0,0,1,1.294,1.945,6.447,6.447,0,0,1,.178,1.164c-.1,1.114-.159,2.232-.235,3.348-.035.508-.111,1.02-.113,1.534,0,1.092-.009,2.185,0,3.278A7.23,7.23,0,0,0,537.9,129a1.557,1.557,0,0,1,.019.454,32.745,32.745,0,0,0,.337,3.879,54.439,54.439,0,0,0,1.7,8.34,63.57,63.57,0,0,0,2.049,6.3c.533,1.384,1.04,2.779,1.589,4.157.427,1.069.9,2.118,1.355,3.176q.789,1.836,1.583,3.67c.3.694.616,1.384.929,2.074,1.011,2.235,1.977,4.49,2.873,6.774.817,2.086,1.682,4.156,2.429,6.267.626,1.768,1.321,3.514,1.812,5.331.276,1.022.626,2.024.948,3.034.717,2.25,1.3,4.537,1.83,6.835.469,2.029.912,4.066,1.185,6.136.131.986.352,1.96.493,2.945.106.747.072,1.52.238,2.251.21.926.086,1.869.282,2.795a10.05,10.05,0,0,1,.063,1.816,5.256,5.256,0,0,0,.128,1.444,2.559,2.559,0,0,1,.037.724c0,1.488.007,2.975,0,4.463a8.4,8.4,0,0,1-.125,1.808,6.563,6.563,0,0,0-.043,1.362,21.979,21.979,0,0,1-.315,3.061c-.018.12-.038.24-.044.361-.051,1.027-.251,2.039-.328,3.059a12.81,12.81,0,0,0,.192,4.16,4.146,4.146,0,0,0,.731,1.552,1.437,1.437,0,0,1-.111,1.973,3.032,3.032,0,0,1-2.087.978c-.515.017-1.032,0-1.548,0a1.653,1.653,0,0,1-.452-.033,11.546,11.546,0,0,1-2.869-1.122.679.679,0,0,1-.121-.134,6.866,6.866,0,0,1,1.357-1.308,2.614,2.614,0,0,0,1.014-1.229.674.674,0,0,0,.223-.582,3.7,3.7,0,0,0,.51-1.061,37.989,37.989,0,0,0,1.858-7.488,64.135,64.135,0,0,0,.035-18.67,94.587,94.587,0,0,0-3.4-14.314c-1.667-5.3-3.682-10.465-5.8-15.595-1.965-4.765-3.961-9.518-5.908-14.29-1.637-4.015-3.146-8.079-4.459-12.214a87.272,87.272,0,0,1-2.819-11.282c-.288-1.641-.477-3.3-.658-4.956-.174-1.6-.125-3.211-.24-4.814A12.8,12.8,0,0,1,534.465,119.366Z" fill="#9ccb3d"/><path d="M550.651,259.323c-.7,0-1.212,0-1.728,0a3.88,3.88,0,0,1-1.081-.1,3.041,3.041,0,0,0-.812-.062q-2.458-.011-4.917-.01a14.36,14.36,0,0,0-5.063.876,9.3,9.3,0,0,0-3.149,1.931,15.087,15.087,0,0,0-3.4,4.787c-.5,1.069-.9,2.182-1.326,3.283a62.25,62.25,0,0,1-3.056,7.088,12.166,12.166,0,0,1-2.741,3.593,5.316,5.316,0,0,1-4.187,1.384,5.005,5.005,0,0,1-2.152-.925,8.651,8.651,0,0,1-2.36-2.605,21.928,21.928,0,0,1-2.4-5.184,32.734,32.734,0,0,1-1.158-4.933,39.44,39.44,0,0,1-.332-6.7,17.526,17.526,0,0,0,.3-2.423c.131-.8.27-1.606.423-2.406a31.63,31.63,0,0,1,1.6-5.481c.4-1.044.846-2.078,1.352-3.076a31.177,31.177,0,0,1,3.356-5.39,36.43,36.43,0,0,1,3.78-4.408,14.019,14.019,0,0,1,2.19-1.613,14.9,14.9,0,0,1,5.392-2.059,14.387,14.387,0,0,1,3.077-.126,10.665,10.665,0,0,1,3.165.724,9.615,9.615,0,0,1,3.827,2.686,16.566,16.566,0,0,1,1.833,2.7c.786,1.33,1.511,2.7,2.418,3.951a10.031,10.031,0,0,0,3.557,3.154,15.684,15.684,0,0,0,4.329,1.6,11.017,11.017,0,0,0,2.24.293c.789-.017,1.58-.024,2.368,0a17.18,17.18,0,0,0,3.864-.435,31.074,31.074,0,0,0,4.794-1.363c.738-.272,1.478-.541,2.2-.853a19.761,19.761,0,0,1,3.548-1.106,2.764,2.764,0,0,1,1.946.179,2.017,2.017,0,0,1,1.091,1.671,3.42,3.42,0,0,1-.311,1.771,11.011,11.011,0,0,1-3.228,4.208,28.6,28.6,0,0,1-3.22,2.194,15.035,15.035,0,0,1-2.562,1.164,25.292,25.292,0,0,1-4.9,1.318c-.894.146-1.793.247-2.685.385a22.285,22.285,0,0,1-2.715.153,1.565,1.565,0,0,0-.363.01A12.319,12.319,0,0,1,550.651,259.323Zm-21.986-18.962a7.184,7.184,0,0,0-3.9,1.081,12.142,12.142,0,0,0-3.534,3.241,21.756,21.756,0,0,0-4.337,9.706,12.526,12.526,0,0,0,.036,4.608,6.623,6.623,0,0,0,.723,2.049,3.517,3.517,0,0,0,3.357,1.932,5.5,5.5,0,0,0,1.34-.23,10.084,10.084,0,0,0,3-1.5,18.57,18.57,0,0,0,3.881-3.687,22.657,22.657,0,0,0,4.168-7.924,10.556,10.556,0,0,0,.335-5.124,4.9,4.9,0,0,0-3.021-3.824A4.983,4.983,0,0,0,528.665,240.361Zm13.3,9.059c0-.15,0-.271,0-.392a2.011,2.011,0,0,0-2.68-1.961,3.7,3.7,0,0,0-1.565.877,8.3,8.3,0,0,0-2.473,5.219,3.488,3.488,0,0,0,.277,1.686,1.507,1.507,0,0,0,2,.906,4.419,4.419,0,0,0,1.276-.68,8.6,8.6,0,0,0,2.776-3.742A4.521,4.521,0,0,0,541.968,249.42Z" fill="#ee3724"/><path d="M581.459,245.792a3.13,3.13,0,0,1-.586,1.923,4.2,4.2,0,0,1-1.833,1.577,1.919,1.919,0,0,1-2.551-.709,2.485,2.485,0,0,1-.5-1.156c-.03-.268-.136-.529-.156-.8a4.23,4.23,0,0,1,.5-2.537,2.28,2.28,0,0,1,2.73-1.29,2.852,2.852,0,0,1,2.159,1.89A2.171,2.171,0,0,1,581.459,245.792Z" fill="#ee3724"/><path d="M479.275,248.04c-.307,0-.429,0-.55,0a16.335,16.335,0,0,1-4.925-.647,27.641,27.641,0,0,1-4.689-1.695,46.785,46.785,0,0,1-5.167-2.841c-2.03-1.269-3.952-2.686-5.884-4.094a40.671,40.671,0,0,0-4.56-2.975,13.751,13.751,0,0,0-4.018-1.385,11.1,11.1,0,0,0-1.635-.041,8.954,8.954,0,0,0-2.85.462,17.58,17.58,0,0,0-4.95,2.443c-1.753,1.19-3.479,2.42-5.243,3.592a25.289,25.289,0,0,1-5.044,2.685,6.2,6.2,0,0,1-2.475.491c-.394-.018-.79.006-1.184-.006a4.12,4.12,0,0,1-3.446-1.869,6.531,6.531,0,0,1-1.124-3.586c-.016-.546.01-1.093-.006-1.639a16.232,16.232,0,0,1,.266-2.338,21.131,21.131,0,0,1,.857-3.61c.24-.811.551-1.6.865-2.389a29.664,29.664,0,0,1,3.389-6.1c.611-.866,1.289-1.677,1.957-2.5.538-.661,1.128-1.265,1.718-1.875a34.942,34.942,0,0,1,4.132-3.542,29.983,29.983,0,0,1,5.12-3.1,31.1,31.1,0,0,1,5.489-2.144c.994-.261,1.936-.705,2.949-.906a10.437,10.437,0,0,1,2.33-.3c.667.02,1.336.027,2,0a9.934,9.934,0,0,1,3.128.456,14.12,14.12,0,0,1,4.334,2.048,11.339,11.339,0,0,1,3.4,3.829,9.255,9.255,0,0,1,.9,2.747,25.319,25.319,0,0,1,.151,4.08,32.734,32.734,0,0,0-.18,5.172,6.252,6.252,0,0,0,.5,2.474,14.554,14.554,0,0,0,2.5,4.189,14.16,14.16,0,0,0,1.277,1.413,21.925,21.925,0,0,0,4.291,3.029,30.214,30.214,0,0,0,4.766,2.013,44.021,44.021,0,0,0,4.653,1.181,13.369,13.369,0,0,1,3.622,1.143,8.154,8.154,0,0,1,.925.575,1.571,1.571,0,0,1,.616,1.164,2.6,2.6,0,0,1-1.238,2.55,10.7,10.7,0,0,1-4.082,1.67A13.958,13.958,0,0,1,479.275,248.04Zm-39.4-18.974a11.781,11.781,0,0,0,2.823-.238,23.257,23.257,0,0,0,9.544-4.076,13.322,13.322,0,0,0,3-2.906,7.806,7.806,0,0,0,1.512-3.276,4.476,4.476,0,0,0-1.063-3.893,6.545,6.545,0,0,0-3.2-1.994,9.644,9.644,0,0,0-4.946-.066,21.934,21.934,0,0,0-8.182,3.835,16.137,16.137,0,0,0-4.138,4.311,9.632,9.632,0,0,0-1.41,3.43,3.661,3.661,0,0,0,2.014,4.091,6.489,6.489,0,0,0,1.19.442A8.835,8.835,0,0,0,439.875,229.066Zm14.622,2.428a8.271,8.271,0,0,0,5.142-2,3.79,3.79,0,0,0,1.269-1.738,1.88,1.88,0,0,0-.789-2.293,3.14,3.14,0,0,0-2.255-.483,8.319,8.319,0,0,0-4.6,2.385,4.433,4.433,0,0,0-1.223,2.091,1.473,1.473,0,0,0,.933,1.829A4.008,4.008,0,0,0,454.5,231.494Z" fill="#ee3724"/><path d="M491.928,249.3a4.636,4.636,0,0,1-.635,0,1.992,1.992,0,0,1-1.822-1.924,3.54,3.54,0,0,1,.551-1.972,8.19,8.19,0,0,1,.591-.911,3.537,3.537,0,0,1,1.908-1.315,2.048,2.048,0,0,1,1.947.477,3.065,3.065,0,0,1,.477,4.436,1.789,1.789,0,0,1-.388.379A4.4,4.4,0,0,1,491.928,249.3Z" fill="#ee3724"/><path d="M528.665,240.361a4.983,4.983,0,0,1,2.046.324,4.9,4.9,0,0,1,3.021,3.824,10.556,10.556,0,0,1-.335,5.124,22.657,22.657,0,0,1-4.168,7.924,18.57,18.57,0,0,1-3.881,3.687,10.084,10.084,0,0,1-3,1.5,5.5,5.5,0,0,1-1.34.23,3.517,3.517,0,0,1-3.357-1.932,6.623,6.623,0,0,1-.723-2.049,12.526,12.526,0,0,1-.036-4.608,21.756,21.756,0,0,1,4.337-9.706,12.142,12.142,0,0,1,3.534-3.241A7.184,7.184,0,0,1,528.665,240.361Z" fill="#f9bab3"/><path d="M541.968,249.42a4.521,4.521,0,0,1-.389,1.913,8.6,8.6,0,0,1-2.776,3.742,4.419,4.419,0,0,1-1.276.68,1.507,1.507,0,0,1-2-.906,3.488,3.488,0,0,1-.277-1.686,8.3,8.3,0,0,1,2.473-5.219,3.7,3.7,0,0,1,1.565-.877,2.011,2.011,0,0,1,2.68,1.961C541.967,249.149,541.968,249.27,541.968,249.42Z" fill="#f9bab3"/><path d="M439.875,229.066a8.835,8.835,0,0,1-2.861-.34,6.489,6.489,0,0,1-1.19-.442,3.661,3.661,0,0,1-2.014-4.091,9.632,9.632,0,0,1,1.41-3.43,16.137,16.137,0,0,1,4.138-4.311,21.934,21.934,0,0,1,8.182-3.835,9.644,9.644,0,0,1,4.946.066,6.545,6.545,0,0,1,3.2,1.994,4.476,4.476,0,0,1,1.063,3.893,7.806,7.806,0,0,1-1.512,3.276,13.322,13.322,0,0,1-3,2.906,23.257,23.257,0,0,1-9.544,4.076A11.781,11.781,0,0,1,439.875,229.066Z" fill="#f9bab3"/><path d="M454.5,231.494a4.008,4.008,0,0,1-1.52-.212,1.473,1.473,0,0,1-.933-1.829,4.433,4.433,0,0,1,1.223-2.091,8.319,8.319,0,0,1,4.6-2.385,3.14,3.14,0,0,1,2.255.483,1.88,1.88,0,0,1,.789,2.293,3.79,3.79,0,0,1-1.269,1.738A8.271,8.271,0,0,1,454.5,231.494Z" fill="#f9bab3"/><rect y="67.907" width="98" height="98" rx="12" fill="#fa0000"/></g></g></svg>